<svg xmlns="http://www.w3.org/2000/svg" width="169.708" height="37.105" viewBox="0 0 169.708 37.105">
  <g id="Group_164" data-name="Group 164" transform="translate(-3620.292 -930.551)">
    <path id="gradient_logo" data-name="gradient logo" d="M82.4,296.456q-4.772-2.268-9.563-4.5t-9.6-4.407q-1.772-.808-3.553-1.6,1.862-.95,3.72-1.907c3.127-1.627,6.255-3.252,9.349-4.948-3.266,1.336-6.5,2.743-9.731,4.149q-2.365,1.039-4.724,2.087-2.354-1.05-4.72-2.089c-3.233-1.406-6.465-2.813-9.731-4.149,3.094,1.695,6.222,3.321,9.349,4.948q1.859.957,3.72,1.907-1.778.8-3.553,1.6-4.819,2.172-9.6,4.407t-9.567,4.5l-1.748.831,1.748.831,4.96,2.354,4.972,2.34c3.321,1.541,6.64,3.088,9.981,4.588l2.713,1.224-4.75,2.43c-3.249,1.695-6.5,3.378-9.716,5.142,3.39-1.386,6.751-2.853,10.112-4.312l5.023-2.225.813-.367.812.367,5.024,2.224c3.361,1.459,6.717,2.926,10.112,4.312-3.214-1.765-6.467-3.449-9.716-5.142l-4.75-2.43L62.49,307.4c3.34-1.5,6.659-3.047,9.981-4.589l4.97-2.335,4.96-2.354,1.748-.83Zm-5.744,2.37-4.943,2.393c-3.288,1.61-6.578,3.217-9.847,4.866l-3.571,1.793-3.568-1.789c-3.269-1.65-6.559-3.256-9.847-4.866l-4.946-2.4-3.22-1.54q3.9-1.87,7.783-3.767,4.749-2.316,9.472-4.691,2.17-1.082,4.327-2.178,2.156,1.1,4.323,2.179,4.722,2.377,9.472,4.691,3.884,1.9,7.783,3.766Z" transform="translate(3587.852 651.459)"/>
    <text id="Gradientt" transform="translate(3674 959)" fill="#303ba0" font-size="28" font-family="Bahnschrift" font-weight="300"><tspan x="0" y="0" fill="#000">Gradient</tspan><tspan y="0" fill="#303ba0">t</tspan></text>
  </g>
</svg>
