<svg id="Layer_1" data-name="Layer 1" xmlns="http://www.w3.org/2000/svg" viewBox="0 0 194.35 140.33"><defs><style>.cls-1{fill:#231f20;}</style></defs><g id="Layer_2" data-name="Layer 2"><g id="Layer_1-2" data-name="Layer 1-2"><path class="cls-1" d="M980.36,440,839.58,507.79a2.17,2.17,0,0,0,0,4.06l140.78,67.82a3.4,3.4,0,0,0,2.89,0l-112.72-68a2.17,2.17,0,0,1,0-3.8L983.12,440A3.32,3.32,0,0,0,980.36,440Z" transform="translate(-838.18 -439.67)"/></g></g><g id="Layer_2-2" data-name="Layer 2"><g id="Layer_1-2-2" data-name="Layer 1-2"><path class="cls-1" d="M890.35,579.69l140.78-67.82a2.17,2.17,0,0,0,0-4.06L890.35,440a3.31,3.31,0,0,0-2.88,0l112.72,68A2.18,2.18,0,0,1,1001,511a2.15,2.15,0,0,1-.84.85L887.6,579.69A3.3,3.3,0,0,0,890.35,579.69Z" transform="translate(-838.18 -439.67)"/></g></g></svg>