<svg xmlns="http://www.w3.org/2000/svg" width="215.751" height="372.726" viewBox="0 0 215.751 372.726"><defs><style>.a{fill:#2916a9;}.b,.h{fill:#303ba0;}.c{opacity:0.3;}.d{fill:#858688;}.e{fill:#d5d7db;}.f{fill:#c0c1c5;}.g{fill:#e9ecff;}.h{stroke:#303ba0;stroke-width:0.25px;}.i{fill:#5e4eb7;}.j{fill:#24305e;stroke:#24305e;}</style></defs><g transform="translate(-108.142 -1107.546)"><ellipse class="a" cx="25.033" cy="4.741" rx="25.033" ry="4.741" transform="translate(139.551 1443.79)"/><ellipse class="a" cx="25.033" cy="4.741" rx="25.033" ry="4.741" transform="translate(143.959 1301.244)"/><ellipse class="a" cx="25.033" cy="4.741" rx="25.033" ry="4.741" transform="translate(135.142 1158.699)"/><ellipse class="a" cx="25.033" cy="4.741" rx="25.033" ry="4.741" transform="translate(242.419 1367.374)"/><ellipse class="a" cx="25.033" cy="4.741" rx="25.033" ry="4.741" transform="translate(246.828 1224.828)"/><g transform="translate(122.085 1107.546)"><g transform="translate(15.96 0)"><path class="b" d="M161.279,192.077l-.7-.4c-.049,0-.073-.1-.065-.2l.7.413C161.206,191.98,161.23,192.053,161.279,192.077Z" transform="translate(-159.101 -177.031)"/><path class="b" d="M161.206,191.846l-.7-.4v-.121l.7.413Z" transform="translate(-159.102 -177.003)"/><path class="b" d="M161.216,190.57l-.7-.413q.121-4.1.105-4.937l.7.4C161.329,186.2,161.3,187.834,161.216,190.57Z" transform="translate(-159.104 -175.84)"/><path class="b" d="M161.352,184.891l-.7-.4-.016-3.116.7.4Z" transform="translate(-159.126 -175.106)"/><path class="b" d="M160.57,181.07l.7.413c.04,0,.057.1.057.235l-.7-.4C160.627,181.175,160.61,181.094,160.57,181.07Z" transform="translate(-159.113 -175.048)"/><path class="b" d="M164.763,173.63l.7.413h-.073l-.7-.4Z" transform="translate(-159.899 -173.63)"/><path class="b" d="M164.064,174.464l-.7-.4c.251-.113.607-.259,1.076-.429l.7.4C164.687,174.213,164.307,174.358,164.064,174.464Z" transform="translate(-159.645 -173.63)"/><path class="b" d="M162.834,174.9l-.7-.4c.235-.089.583-.194,1.036-.332l.7.4C163.368,174.7,163.028,174.84,162.834,174.9Z" transform="translate(-159.411 -173.731)"/><path class="b" d="M162.646,175.015l-.7-.4.105-.04.7.4Z" transform="translate(-159.376 -173.809)"/><path class="b" d="M162.324,175.4l-.7-.4a1,1,0,0,1,.267-.372l.7.4A.915.915,0,0,0,162.324,175.4Z" transform="translate(-159.313 -173.819)"/><path class="b" d="M159.716,178.431l-.7-.4a12.4,12.4,0,0,0,2.1-2.946l.7.4A12.447,12.447,0,0,1,159.716,178.431Z" transform="translate(-158.818 -173.906)"/><path class="b" d="M162.2,174.931l.105-.04c.235-.081.575-.194,1.036-.332.243-.105.6-.251,1.068-.429.081,0,.13,0,.13.154v.235c-.065.648-.089,2.185-.089,4.581v7.252a.939.939,0,0,1-.154.461,1.068,1.068,0,0,1-.34.364l-1.319.769c-.583.34-1.02.607-1.311.809s-.332.081-.332-.138V188.5c.081-2.736.113-4.371.113-4.945v-3.116c0-.194,0-.275-.113-.235a3.474,3.474,0,0,0-.558.453,3.665,3.665,0,0,1-.558.445c-.194.113-.283.04-.291-.218s0-.591,0-1.076v-1.068a.7.7,0,0,1,.227-.445,12.449,12.449,0,0,0,2.112-2.946.915.915,0,0,1,.275-.413Z" transform="translate(-158.925 -173.725)"/><path class="b" d="M159.555,181.974l-.7-.413c-.049,0-.081-.113-.081-.251v-2.145a.656.656,0,0,1,.227-.445l.7.4a.7.7,0,0,0-.227.445v2.145C159.466,181.982,159.5,181.941,159.555,181.974Z" transform="translate(-158.77 -174.6)"/></g><g transform="translate(4.492 5.3)"><path class="b" d="M150.386,192.858l-.7-.4a1.3,1.3,0,0,0,1.344-.146,3.861,3.861,0,0,0,1.489-1.748l.7.4a3.828,3.828,0,0,1-1.5,1.748,1.287,1.287,0,0,1-1.344.146Z" transform="translate(-145.57 -182.158)"/><path class="b" d="M153,185.75l.7.413a1.106,1.106,0,0,1,.17.121,1.991,1.991,0,0,1,.55,1.562,4.993,4.993,0,0,1-.55,2.2l-.7-.4a5.01,5.01,0,0,0,.558-2.2,2.072,2.072,0,0,0-.55-1.57Z" transform="translate(-146.201 -181.241)"/><path class="b" d="M147.044,195.015l-.7-.413-.2-.121q-1.53-1.068-1.546-3.772a11.445,11.445,0,0,1,1.522-5.536,10.578,10.578,0,0,1,3.909-4.241q2.218-1.279,3.747-.388l.7.413q-1.53-.9-3.739.38a10.522,10.522,0,0,0-3.909,4.249,11.388,11.388,0,0,0-1.522,5.528q0,2.719,1.546,3.772Z" transform="translate(-144.6 -180.178)"/><path class="b" d="M154.8,181.159q1.53,1.052,1.546,3.763a11.477,11.477,0,0,1-1.513,5.536,10.521,10.521,0,0,1-3.909,4.273c-1.562.9-2.873.987-3.925.251s-1.546-1.959-1.546-3.772a11.387,11.387,0,0,1,1.522-5.528,10.522,10.522,0,0,1,3.909-4.249Q153.244,180.09,154.8,181.159Zm-2.428,7.924a4.993,4.993,0,0,0,.55-2.2,1.991,1.991,0,0,0-.55-1.562,1.206,1.206,0,0,0-1.513,0,3.869,3.869,0,0,0-1.513,1.716,4.856,4.856,0,0,0-.534,2.2,2.1,2.1,0,0,0,.542,1.619,1.2,1.2,0,0,0,1.522,0,3.828,3.828,0,0,0,1.5-1.748" transform="translate(-144.762 -180.275)"/></g><g transform="translate(15.694 141.065)"><path class="b" d="M463.727,184.286l.7.4a1.619,1.619,0,0,0-1.149-.138l-.7-.4a1.619,1.619,0,0,1,1.157.138Z" transform="translate(-455.958 -178.554)"/><path class="b" d="M455.161,196.672l-.7-.4a.121.121,0,0,1-.057-.1l.7.413A.089.089,0,0,0,455.161,196.672Z" transform="translate(-454.4 -180.856)"/><path class="b" d="M455.1,196.533l-.7-.413a1.418,1.418,0,0,1,.04-.21l.7.413a.93.93,0,0,0-.032.21Z" transform="translate(-454.4 -180.806)"/><path class="b" d="M455.146,196l-.7-.413c.081-.3.21-.761.372-1.376l.7.4C455.356,195.23,455.235,195.659,455.146,196Z" transform="translate(-454.41 -180.482)"/><path class="b" d="M456.264,191.655l-.7-.4a8.077,8.077,0,0,0,.809-.129,4.1,4.1,0,0,0,1.384-.445c1.2-.7,1.8-1.5,1.789-2.428a.55.55,0,0,0-.219-.518l.7.4a.558.558,0,0,1,.218.526c0,.915-.591,1.716-1.789,2.428a4.1,4.1,0,0,1-1.384.445C456.539,191.623,456.272,191.663,456.264,191.655Z" transform="translate(-454.621 -179.247)"/><path class="b" d="M455.606,194.308l-.7-.4c.049-.291.129-.72.259-1.3l.7.4C455.744,193.587,455.655,194.024,455.606,194.308Z" transform="translate(-454.497 -180.175)"/><path class="b" d="M455.926,192.906l-.7-.4a.623.623,0,0,1,.267-.421l.7.4a.631.631,0,0,0-.275.421Z" transform="translate(-454.558 -180.076)"/><path class="b" d="M456.555,188.588l-.7-.4q-.073,0-.073-.17a11.339,11.339,0,0,1,.105-2.08.631.631,0,0,1,.291-.429,9.893,9.893,0,0,1,.915-.445c.4-.178.712-.324.915-.437a1.83,1.83,0,0,0,.656-.68,1.8,1.8,0,0,0,.259-.906.708.708,0,0,0-.259-.656l.7.413c.17.1.259.316.259.647a1.967,1.967,0,0,1-.906,1.619c-.21.113-.51.259-.915.437s-.712.324-.923.445a.632.632,0,0,0-.291.429,11.641,11.641,0,0,0-.1,2.08A.144.144,0,0,0,456.555,188.588Z" transform="translate(-454.661 -178.227)"/><path class="b" d="M462.73,177.452l.7.4a1.676,1.676,0,0,0-.712-.2,4.654,4.654,0,0,0-2.727.809l-.7-.4a4.638,4.638,0,0,1,2.727-.809A1.717,1.717,0,0,1,462.73,177.452Z" transform="translate(-455.332 -177.248)"/><path class="b" d="M455.961,184.993l-.7-.4a.275.275,0,0,1-.105-.178l.7.4a.315.315,0,0,0,.105.178Z" transform="translate(-454.545 -178.614)"/><path class="b" d="M455.807,184.473l-.7-.4c0-.283-.04-.615-.065-.971a1.868,1.868,0,0,0-.057-.478l.7.4a2.557,2.557,0,0,0,.065.477A6.015,6.015,0,0,1,455.807,184.473Z" transform="translate(-454.512 -178.273)"/><path class="b" d="M459.218,178.519a4.654,4.654,0,0,1,2.727-.809c.947.081,1.424.68,1.424,1.8a6.054,6.054,0,0,1-1.505,3.8,1.489,1.489,0,0,1,1.425.348,2.12,2.12,0,0,1,.526,1.578,6.207,6.207,0,0,1-1.392,3.8,9.6,9.6,0,0,1-2.962,2.614,12.661,12.661,0,0,1-2.258,1.085c-1.287.437-1.934.534-1.934.3a.933.933,0,0,1,0-.21c.089-.308.21-.769.372-1.384.049-.283.138-.72.259-1.3a.631.631,0,0,1,.275-.421,5.844,5.844,0,0,0,.809-.129,4.1,4.1,0,0,0,1.384-.445,2.914,2.914,0,0,0,1.789-2.428q0-1.109-1.7-.121l-.607.364-.494.308-.615.348c-.267.113-.4.073-.4-.13a11.642,11.642,0,0,1,.1-2.08.631.631,0,0,1,.291-.429c.21-.121.518-.267.923-.445s.7-.324.915-.437a1.966,1.966,0,0,0,.906-1.619c0-.809-.526-.931-1.578-.332a10.713,10.713,0,0,0-1.781,1.441l-.081.057c-.081.04-.154,0-.2-.178s0-.615-.057-.971a1.677,1.677,0,0,0-.065-.478,1.111,1.111,0,0,1,0-.469c0-.372.494-.947,1.5-1.732A17.639,17.639,0,0,1,459.218,178.519Z" transform="translate(-454.564 -177.336)"/><path class="b" d="M455.7,182.184l-.7-.4a3.789,3.789,0,0,1,0-.469c0-.372.494-.955,1.489-1.732a17.372,17.372,0,0,1,2.007-1.368l.7.4a17.66,17.66,0,0,0-2,1.368c-1,.809-1.5,1.36-1.5,1.732A1.5,1.5,0,0,0,455.7,182.184Z" transform="translate(-454.515 -177.432)"/></g><g transform="translate(4.072 146.953)"><path class="b" d="M445.836,197.207l-.7-.413a1.287,1.287,0,0,0,1.327-.138,3.941,3.941,0,0,0,1.5-1.756l.7.4a3.91,3.91,0,0,1-1.505,1.756A1.271,1.271,0,0,1,445.836,197.207Z" transform="translate(-441.012 -186.502)"/><path class="b" d="M448.42,190.09l.7.4a1.109,1.109,0,0,1,.17.121,1.967,1.967,0,0,1,.558,1.562,5.113,5.113,0,0,1-.55,2.21l-.7-.4a5.018,5.018,0,0,0,.559-2.21,2.023,2.023,0,0,0-.559-1.562A1.116,1.116,0,0,0,448.42,190.09Z" transform="translate(-441.638 -185.585)"/><path class="b" d="M442.508,199.364l-.7-.4-.218-.146q-1.53-1.06-1.546-3.772a11.453,11.453,0,0,1,1.522-5.52,10.44,10.44,0,0,1,3.909-4.249q2.21-1.271,3.747-.388l.7.413c-1.02-.6-2.274-.469-3.747.38a10.367,10.367,0,0,0-3.9,4.249,11.387,11.387,0,0,0-1.522,5.528q0,2.7,1.546,3.763Z" transform="translate(-440.04 -184.523)"/><path class="b" d="M450.258,185.5c1.028.7,1.546,1.951,1.546,3.755a11.476,11.476,0,0,1-1.513,5.536,10.522,10.522,0,0,1-3.917,4.29q-2.347,1.352-3.917.235a4.276,4.276,0,0,1-1.546-3.788A11.387,11.387,0,0,1,442.431,190a10.368,10.368,0,0,1,3.9-4.249C447.895,184.875,449.2,184.786,450.258,185.5Zm-2.428,7.924a5.115,5.115,0,0,0,.55-2.21,1.967,1.967,0,0,0-.558-1.562,1.206,1.206,0,0,0-1.505,0,3.779,3.779,0,0,0-1.514,1.716,4.767,4.767,0,0,0-.534,2.2,2.047,2.047,0,0,0,.542,1.619,1.182,1.182,0,0,0,1.513,0,3.909,3.909,0,0,0,1.505-1.756" transform="translate(-440.206 -184.618)"/></g><g transform="translate(5.863 293.744)"><path class="b" d="M749.456,197l-.7-.4a1.287,1.287,0,0,0,1.327-.138,3.99,3.99,0,0,0,1.5-1.756l.7.4a3.957,3.957,0,0,1-1.505,1.756A1.287,1.287,0,0,1,749.456,197Z" transform="translate(-744.632 -186.3)"/><path class="b" d="M752,189.88l.7.413a.811.811,0,0,1,.17.121,1.95,1.95,0,0,1,.558,1.562,5.113,5.113,0,0,1-.55,2.21l-.7-.4a5.02,5.02,0,0,0,.558-2.21,2,2,0,0,0-.558-1.562Z" transform="translate(-745.25 -185.381)"/><path class="b" d="M746.128,199.156l-.7-.4-.219-.138q-1.53-1.068-1.546-3.772a11.477,11.477,0,0,1,1.521-5.528,10.521,10.521,0,0,1,3.909-4.249q2.193-1.263,3.731-.38l.7.4q-1.513-.89-3.731.388a10.4,10.4,0,0,0-3.9,4.241,11.414,11.414,0,0,0-1.521,5.528q0,2.719,1.546,3.772Z" transform="translate(-743.66 -184.322)"/><path class="b" d="M753.87,185.3q1.554,1.044,1.554,3.755a11.566,11.566,0,0,1-1.513,5.536,10.456,10.456,0,0,1-3.917,4.281q-2.339,1.36-3.917.243a4.231,4.231,0,0,1-1.546-3.772,11.412,11.412,0,0,1,1.522-5.528,10.391,10.391,0,0,1,3.9-4.241Q752.3,184.212,753.87,185.3Zm-2.428,7.924a5.117,5.117,0,0,0,.55-2.21,1.95,1.95,0,0,0-.558-1.562,1.2,1.2,0,0,0-1.505,0,3.8,3.8,0,0,0-1.513,1.724,4.709,4.709,0,0,0-.534,2.193,2.064,2.064,0,0,0,.542,1.619,1.2,1.2,0,0,0,1.514,0,3.957,3.957,0,0,0,1.505-1.756" transform="translate(-743.826 -184.416)"/></g><g transform="translate(17.555 286.737)"><path class="b" d="M758.885,196.741l-.7-.4a.105.105,0,0,1-.049-.057l.7.4A.048.048,0,0,0,758.885,196.741Z" transform="translate(-758.113 -179.594)"/><path class="b" d="M758.83,196.179l-.7-.4a5.352,5.352,0,0,1,0-.906,7.042,7.042,0,0,1,.089-1.238l.7.413a12.082,12.082,0,0,0-.081,1.23A5.252,5.252,0,0,0,758.83,196.179Z" transform="translate(-758.106 -179.089)"/><path class="b" d="M762.922,187l.7.4a.809.809,0,0,1,.316.728c0,1.012-.672,1.9-2.015,2.679a5.107,5.107,0,0,1-2.5.809l-.7-.4a5.22,5.22,0,0,0,2.5-.809c1.344-.809,2.015-1.667,2.007-2.679A.809.809,0,0,0,762.922,187Z" transform="translate(-758.225 -177.825)"/><path class="b" d="M759.236,192.681l-.7-.413a.492.492,0,0,1,.154,0l.7.4a.365.365,0,0,0-.154.008Z" transform="translate(-758.189 -178.828)"/><path class="b" d="M758.9,193.783l-.7-.413c.081-.672.17-1.036.275-1.1l.7.413C759.066,192.739,758.977,193.1,758.9,193.783Z" transform="translate(-758.124 -178.829)"/><path class="b" d="M767.242,175.677l.7.4h-.194l-.7-.413C767.137,175.669,767.2,175.653,767.242,175.677Z" transform="translate(-759.809 -175.663)"/><path class="b" d="M766.621,182.428l.7.4a1.681,1.681,0,0,0-.3-.138,3.513,3.513,0,0,0-2.833.6c-.17.1-.413.251-.72.469s-.567.372-.729.469l-.7-.413c.162-.089.388-.235.72-.461s.55-.372.72-.469a3.521,3.521,0,0,1,2.833-.6A1.322,1.322,0,0,1,766.621,182.428Z" transform="translate(-758.856 -176.911)"/><path class="b" d="M763.326,178.172l-.7-.4q2.663-1.546,3.569-2.048l.7.413C766.3,176.465,765.1,177.144,763.326,178.172Z" transform="translate(-758.969 -175.674)"/><path class="b" d="M760.186,180.168l-.7-.4c.13-.113.979-.615,2.542-1.513l.7.4C761.165,179.553,760.316,180.063,760.186,180.168Z" transform="translate(-758.37 -176.157)"/><path class="b" d="M759.559,187.989l-.7-.413q-.073,0-.073-.194c0-.672,0-1.716.065-3.124s.073-2.428.073-3.124a1.142,1.142,0,0,1,.13-.494l.7.413a1.205,1.205,0,0,0-.129.486c0,.672,0,1.716-.065,3.132s-.073,2.428-.073,3.116C759.486,187.892,759.51,187.957,759.559,187.989Z" transform="translate(-758.236 -176.612)"/><path class="b" d="M762.622,178.258c1.773-1.028,2.97-1.708,3.577-2.04.162-.089.243-.057.251.1,0,.4-.041.963-.113,1.7-.089.947-.194,1.449-.324,1.53l-.1.049c-1.384.656-2.242,1.076-2.582,1.271a1.593,1.593,0,0,0-1.23,2.031.358.358,0,0,0,0,.186c.162-.1.4-.243.729-.469s.55-.372.72-.469a3.513,3.513,0,0,1,2.833-.6c.809.275,1.222,1.06,1.222,2.347q0,4.686-5.026,7.608a20.394,20.394,0,0,1-1.951.947c-1.068.461-1.619.6-1.675.4a5.228,5.228,0,0,1,0-.906,12.012,12.012,0,0,1,.081-1.23c.081-.68.17-1.044.275-1.1a.364.364,0,0,1,.154,0,5.106,5.106,0,0,0,2.5-.809c1.344-.809,2.015-1.667,2.015-2.679,0-.55-.243-.809-.745-.809a2.784,2.784,0,0,0-1.384.453c-.226.129-.558.364-1,.68s-.809.542-1.012.68-.324.073-.324-.154c0-.672,0-1.716.073-3.116s.065-2.428.065-3.132a1.206,1.206,0,0,1,.13-.486,1.234,1.234,0,0,1,.3-.429A23.528,23.528,0,0,1,762.622,178.258Z" transform="translate(-758.264 -175.76)"/><path class="b" d="M759.836,180.954l-.7-.413a1.172,1.172,0,0,1,.3-.421l.7.4A1.241,1.241,0,0,0,759.836,180.954Z" transform="translate(-758.303 -176.513)"/></g><g class="c" transform="translate(46.918 41.463)"><path class="d" d="M287.311,284.674,197.036,232.2l-.016-4.524L287.3,280.142Z" transform="translate(-197.02 -225.398)"/><path class="e" d="M287.3,279.6,197.02,227.142l3.942-2.282,90.283,52.47Z" transform="translate(-197.02 -224.86)"/><path class="f" d="M312.512,289.69l.008,4.524-3.942,2.282-.008-4.532Z" transform="translate(-218.287 -237.22)"/></g><g class="c" transform="translate(41.745 118.781)"><g transform="translate(0)"><path class="d" d="M355.28,287.595l90.275-52.462.016-4.532-90.283,52.462Z" transform="translate(-351.338 -228.326)"/><path class="e" d="M354.362,282.526l90.283-52.462L440.7,227.79,350.42,280.252Z" transform="translate(-350.412 -227.79)"/><path class="f" d="M350.418,292.61l-.008,4.532,3.942,2.274.008-4.532Z" transform="translate(-350.41 -240.148)"/></g></g><path class="b" d="M212.09,220.52a2.38,2.38,0,0,0,.219-.542.6.6,0,0,0,0-.113,2.644,2.644,0,0,0,.073-.567h0V216.87a2.721,2.721,0,0,1-.073.567.6.6,0,0,1,0,.113,2.377,2.377,0,0,1-.219.542l-.049.089a3.622,3.622,0,0,1-.34.469.617.617,0,0,1-.065.089,5.785,5.785,0,0,1-.5.486l-.21.162-.162.113a4.189,4.189,0,0,1-.421.275L181.27,236.667a6.66,6.66,0,0,1-1.109.526h0a9.7,9.7,0,0,1-1.222.372h0a11.209,11.209,0,0,1-1.3.219h0a10.6,10.6,0,0,1-1.344.081h0a11.46,11.46,0,0,1-1.295-.073h-.17a11.559,11.559,0,0,1-1.2-.2h0a8.848,8.848,0,0,1-1.263-.38l-.13-.049a7.227,7.227,0,0,1-1.068-.51l-29.258-16.891a4.561,4.561,0,0,1-.486-.308h0a3.777,3.777,0,0,1-.4-.316h0a4.283,4.283,0,0,1-.332-.332h0a3.427,3.427,0,0,1-.267-.332h0c-.081-.121-.154-.251-.219-.372h0a3,3,0,0,1-.154-.372h0a1.912,1.912,0,0,1-.089-.356v-.049a2.777,2.777,0,0,1,0-.372h0v2.469a1.977,1.977,0,0,0,0,.219.549.549,0,0,1,0,.113.105.105,0,0,1,0,.049v.049a.851.851,0,0,0,.049.194.6.6,0,0,0,0,.113h0v.04a.214.214,0,0,0,.065.178,1.411,1.411,0,0,0,.081.154h0l.1.17.105.162h0l.073.105c.04.049.081.105.129.154l.065.073h0l.049.057.154.154.129.121h0l.194.162.186.13h0a2.935,2.935,0,0,0,.259.178l.21.121,29.258,16.891.1.057.364.194.453.2.154.057.13.049.291.105a7.594,7.594,0,0,0,.866.243h0l.7.138.5.065h3.116l.283-.049.283-.049.283-.057h.243l.275-.073.267-.081.275-.089.275-.1h0l.243-.089.283-.129.3-.146.291-.162L210.115,222.2h0l.34-.21.073-.057.162-.113.154-.113.049-.049a5.777,5.777,0,0,0,.5-.486l.073-.081a4.236,4.236,0,0,0,.332-.478Z" transform="translate(-139.224 -181.874)"/><path class="g" d="M141.187,214.446c-2.841-1.619-2.857-4.306,0-5.941l29.541-17.174a11.331,11.331,0,0,1,10.263,0l29.736,17.174c2.849,1.619,2.857,4.3.04,5.941l-29.549,17.166a11.331,11.331,0,0,1-10.263,0Z" transform="translate(-139.05 -176.77)"/><path class="b" d="M357.155,309.792a3.688,3.688,0,0,0,.219-.534v-.121a2.652,2.652,0,0,0,.081-.559h0V306.15a2.2,2.2,0,0,1-.073.558.673.673,0,0,1,0,.121,2.476,2.476,0,0,1-.219.534.317.317,0,0,1-.049.089,3.608,3.608,0,0,1-.332.477l-.065.081a4.862,4.862,0,0,1-.51.486l-.2.162-.162.121c-.138.089-.275.186-.429.275l-29.064,16.891a9.335,9.335,0,0,1-1.109.526h0a8.563,8.563,0,0,1-1.222.372h0a11.384,11.384,0,0,1-1.295.227h0a12.211,12.211,0,0,1-1.335.073h0a11.485,11.485,0,0,1-1.3-.073h-.162a11.325,11.325,0,0,1-1.206-.21h0a10.283,10.283,0,0,1-1.166-.356l-.129-.049a8.643,8.643,0,0,1-1.068-.5l-29.258-16.891-.486-.316h0c-.146-.105-.283-.21-.4-.316h0a4.211,4.211,0,0,1-.332-.324h0q-.146-.17-.267-.34h0a2.973,2.973,0,0,1-.227-.364h0a3.581,3.581,0,0,1-.162-.364V307a2.544,2.544,0,0,1-.089-.356.057.057,0,0,0,0-.04,2.971,2.971,0,0,1,0-.372h0v2.428a1.976,1.976,0,0,0,0,.218.628.628,0,0,1,0,.113l.049.3v.146l.073.178.073.162h0a1.714,1.714,0,0,0,.089.17l.105.162h0l.073.105.129.162.065.073h0l.049.049.154.162.13.113h0l.194.162.186.138h0l.267.17.2.13,29.258,16.891.1.057.372.186.445.2.154.057.138.049.291.113c.275.089.567.17.858.243h0l.7.146.5.065h2.833l.291-.04h.291l.283-.057.275-.057h.251l.275-.065.275-.081.267-.089.275-.1h0l.235-.1.283-.13.3-.138.291-.162,29.218-16.883h0a3.461,3.461,0,0,0,.34-.21l.073-.049.162-.121.154-.113.049-.049a4.185,4.185,0,0,0,.51-.486l.065-.081a2.983,2.983,0,0,0,.332-.477Z" transform="translate(-166.9 -198.895)"/><path class="g" d="M286.225,303.726c-2.849-1.619-2.857-4.306-.04-5.949l29.549-17.166a11.33,11.33,0,0,1,10.263,0l29.736,17.166c2.841,1.619,2.857,4.306,0,5.949l-29.541,17.166a11.331,11.331,0,0,1-10.263,0Z" transform="translate(-166.7 -193.792)"/><g class="c" transform="translate(47.496 178.389)"><path class="d" d="M589.439,284.985l-90.283-52.462-.016-4.532,90.283,52.462Z" transform="translate(-499.14 -225.716)"/><path class="e" d="M589.423,279.916,499.14,227.454l3.95-2.274,90.275,52.462Z" transform="translate(-499.14 -225.18)"/><path class="f" d="M614.632,290l.016,4.532-3.942,2.274-.016-4.532Z" transform="translate(-520.407 -237.538)"/></g><g class="c" transform="translate(43.792 257.169)"><path class="d" d="M657.4,287.9l90.283-52.462.016-4.532-90.283,52.47Z" transform="translate(-653.458 -228.636)"/><path class="e" d="M656.491,282.845l90.283-52.47-3.949-2.274L652.55,280.57Z" transform="translate(-652.534 -228.1)"/><path class="f" d="M652.546,292.93l-.016,4.524,3.941,2.274.016-4.524Z" transform="translate(-652.53 -240.46)"/></g><path class="b" d="M815.891,220.832a2.484,2.484,0,0,0,.219-.534.7.7,0,0,0,0-.121,2.642,2.642,0,0,0,.073-.558h0V217.19a2.642,2.642,0,0,1-.073.558.7.7,0,0,1,0,.121,2.484,2.484,0,0,1-.219.534l-.049.089a4.58,4.58,0,0,1-.332.478l-.073.081a4.1,4.1,0,0,1-.5.486l-.21.162-.162.121a4.179,4.179,0,0,1-.421.267l-29.072,16.9a8.251,8.251,0,0,1-1.109.526h0a8.559,8.559,0,0,1-1.222.372h0a11.222,11.222,0,0,1-1.3.227h0a12.235,12.235,0,0,1-1.344.073h0a11.47,11.47,0,0,1-1.3-.073h-.17a11.555,11.555,0,0,1-1.2-.2h0a10.311,10.311,0,0,1-1.165-.356l-.129-.049a8.644,8.644,0,0,1-1.068-.5l-29.258-16.9a4.556,4.556,0,0,1-.486-.308h0c-.146-.105-.283-.21-.4-.316h0a4.227,4.227,0,0,1-.332-.324h0q-.146-.17-.267-.34h0a3.45,3.45,0,0,1-.219-.372h0a3.015,3.015,0,0,1-.154-.372h0a2.537,2.537,0,0,1-.089-.356v-.049a2.79,2.79,0,0,1,0-.364h0v2.428a1.977,1.977,0,0,0,0,.219.627.627,0,0,1,0,.113.105.105,0,0,1,0,.049v.049a1.664,1.664,0,0,0,.049.194v.113h0a1.614,1.614,0,0,0,.065.178.921.921,0,0,0,.081.154h0a1.746,1.746,0,0,0,.089.17l.105.162h0l.073.105c.04.049.081.105.13.154l.065.081h0l.049.049a1.386,1.386,0,0,0,.154.154l.129.121h0l.194.162.186.138h0l.259.17.21.121,29.258,16.9.1.057.364.186.453.2.154.057.13.049.291.105a8.084,8.084,0,0,0,.866.243h0c.235.057.469.105.7.138s.332.049.5.073h3.116l.38.113.283-.057.283-.057h.243l.275-.073.267-.073.275-.089.275-.105h0l.243-.1.283-.129a2.046,2.046,0,0,0,.3-.146l.291-.154,29.064-16.9h0a3.447,3.447,0,0,0,.34-.21l.073-.049.162-.121.154-.113.049-.049a4.858,4.858,0,0,0,.51-.486l.065-.081a3.619,3.619,0,0,0,.332-.478Z" transform="translate(-737.833 103.156)"/><path class="g" d="M744.967,214.758c-2.841-1.619-2.857-4.3,0-5.941l29.541-17.166a11.331,11.331,0,0,1,10.263,0l29.735,17.166c2.849,1.619,2.857,4.306,0,5.941l-29.549,17.174a11.331,11.331,0,0,1-10.262,0Z" transform="translate(-737.638 108.259)"/><path class="b" d="M659.273,310.14a2.378,2.378,0,0,0,.219-.542v-.113a2.714,2.714,0,0,0,.073-.567h0V306.49a2.782,2.782,0,0,1-.073.567.464.464,0,0,0,0,.113,2.82,2.82,0,0,1-.219.542.493.493,0,0,1-.057.081,2.973,2.973,0,0,1-.332.478l-.065.081a3.663,3.663,0,0,1-.51.486,1.968,1.968,0,0,1-.2.162l-.162.121c-.13.1-.275.186-.421.275l-29.072,16.891a7.37,7.37,0,0,1-1.109.526h0a11.9,11.9,0,0,1-1.222.372h0a11.232,11.232,0,0,1-1.3.219h0c-.445.049-.89.073-1.344.081h0a7.675,7.675,0,0,1-1.295-.073h-.17a11.543,11.543,0,0,1-1.2-.2h0a9.15,9.15,0,0,1-1.157-.356.808.808,0,0,1-.13-.049,7.708,7.708,0,0,1-1.076-.5l-29.258-16.891c-.17-.1-.332-.2-.486-.308h0a3.749,3.749,0,0,1-.4-.316h0a3.143,3.143,0,0,1-.332-.324h0c-.1-.113-.186-.219-.267-.332h0a3.615,3.615,0,0,1-.219-.364h0a3.582,3.582,0,0,1-.154-.372h0a2.08,2.08,0,0,1-.089-.356.105.105,0,0,1,0-.049,2.9,2.9,0,0,1,0-.372h0v2.428a2.034,2.034,0,0,0,0,.227.639.639,0,0,0,0,.113v.049a.057.057,0,0,0,0,.04,1.483,1.483,0,0,0,0,.2.183.183,0,0,0,.041.113h0a1.692,1.692,0,0,0,.065.186l.073.154h0l.1.162a1.971,1.971,0,0,0,.105.17h0l.073.1.13.162.065.073h0v.057l.162.154a.853.853,0,0,0,.129.113h0l.194.162.178.129h0l.259.178.21.121L618.287,328.6l.1.057.364.186a4.525,4.525,0,0,0,.453.2l.154.057a.8.8,0,0,0,.129.049l.291.113c.283.089.567.17.866.243h0l.7.138.494.065h.275l.421.04h2.137l.291-.04h.283l.283-.049.283-.057h.243l.275-.073.267-.081.275-.089.275-.1h0l.235-.089.291-.13.291-.146.291-.162,29.072-16.891h0l.34-.219.065-.049.162-.121a1.092,1.092,0,0,0,.154-.113l.057-.04a4.849,4.849,0,0,0,.5-.494.32.32,0,0,0,.065-.081,3.7,3.7,0,0,0,.34-.477Z" transform="translate(-475.789 -60.823)"/><path class="g" d="M588.347,304.036c-2.841-1.619-2.857-4.306,0-5.949l29.541-17.166a11.331,11.331,0,0,1,10.263,0l29.735,17.166c2.841,1.619,2.857,4.306,0,5.949l-29.541,17.183a11.331,11.331,0,0,1-10.263,0Z" transform="translate(-475.592 -55.714)"/><path class="b" d="M513.74,220.52a2.809,2.809,0,0,0,.219-.542v-.113a2.228,2.228,0,0,0,.081-.567h0V216.87a2.279,2.279,0,0,1-.081.567v.113a3.456,3.456,0,0,1-.219.542l-.057.089a2.938,2.938,0,0,1-.332.469l-.065.089a4.927,4.927,0,0,1-.51.486l-.2.162-.162.113c-.137.1-.275.186-.429.275l-29.064,16.891a7.348,7.348,0,0,1-1.109.526h0a9.344,9.344,0,0,1-1.222.372h0a11.505,11.505,0,0,1-1.3.219h0a10.7,10.7,0,0,1-1.344.081h0a11.572,11.572,0,0,1-1.294-.073h-.163a12.081,12.081,0,0,1-1.206-.2h0a9.123,9.123,0,0,1-1.157-.348l-.13-.049a7.288,7.288,0,0,1-1.077-.51l-29.379-16.907c-.17-.1-.332-.2-.486-.308h0a3.878,3.878,0,0,1-.4-.316h0c-.121-.113-.227-.219-.332-.332h0a2.593,2.593,0,0,1-.275-.332h0a2.98,2.98,0,0,1-.219-.372h0a2.127,2.127,0,0,1-.154-.372h0a1.909,1.909,0,0,0-.089-.356v-.049a1.888,1.888,0,0,1,0-.372h0v2.469a1.977,1.977,0,0,0,0,.219.541.541,0,0,0,0,.113.106.106,0,0,0,0,.049v.049l.049.194v.113h0v.04l.073.178.073.154h0a1.831,1.831,0,0,0,.1.17l.1.162h0l.073.105.121.154.073.073h0l.049.057.154.154.13.121h0l.2.162.178.13h0l.267.178.2.121,29.258,16.891.105.057.364.194.453.2.154.057.13.049.291.105a7.459,7.459,0,0,0,.858.243h0l.7.138.494.065h3.116l.291-.049.283-.049.275-.057h.251l.267-.073.275-.081.267-.089.275-.1h.04l.235-.089.291-.129.291-.146.291-.162,29.072-16.891h0l.34-.21.065-.057.162-.113.154-.113.049-.049a4.929,4.929,0,0,0,.51-.486l.065-.081a3.389,3.389,0,0,0,.332-.478Z" transform="translate(-436.26 -43.737)"/><path class="g" d="M442.847,214.446c-2.841-1.619-2.857-4.306,0-5.941l29.541-17.174a11.331,11.331,0,0,1,10.263,0l29.735,17.174c2.841,1.619,2.857,4.3,0,5.941l-29.541,17.166a11.331,11.331,0,0,1-10.263,0Z" transform="translate(-436.096 -38.634)"/><g transform="translate(130.233 75.519)"><path class="b" d="M310.491,276.424l.7.413H311q-1.352.761-3.715,2.274l-.7-.4q2.371-1.505,3.707-2.282A.2.2,0,0,1,310.491,276.424Z" transform="translate(-301.224 -268.742)"/><path class="b" d="M301.359,287.11l-.7-.4a.178.178,0,0,1-.073-.146l.7.4A.2.2,0,0,0,301.359,287.11Z" transform="translate(-300.08 -270.679)"/><path class="b" d="M301.262,286.732l-.7-.4a7.14,7.14,0,0,0-.138-.987l.7.413C301.2,286.182,301.237,286.506,301.262,286.732Z" transform="translate(-300.048 -270.447)"/><path class="b" d="M304.719,272.32l.7.4a1.028,1.028,0,0,1,.437.963,9.469,9.469,0,0,1-1.23,3.3,34.713,34.713,0,0,1-1.886,3.351,4.936,4.936,0,0,1-1.149,1.044c-.51.372-.769.639-.769.809a9.411,9.411,0,0,0,.235,1.093l-.7-.413a8.715,8.715,0,0,1-.235-1.093c0-.154.251-.413.769-.809a4.927,4.927,0,0,0,1.149-1.044,35.466,35.466,0,0,0,1.886-3.351,9.372,9.372,0,0,0,1.222-3.294A1,1,0,0,0,304.719,272.32Z" transform="translate(-299.992 -267.964)"/><path class="b" d="M308.852,267.158l.7.4a1.81,1.81,0,0,0-.567-.2,4.573,4.573,0,0,0-2.914.809l-.7-.413a4.573,4.573,0,0,1,2.906-.809A1.74,1.74,0,0,1,308.852,267.158Z" transform="translate(-300.993 -266.938)"/><path class="b" d="M301.117,275l-.7-.4c-.1-.057-.154-.283-.154-.68a5.882,5.882,0,0,0-.049-.915,2.644,2.644,0,0,0-.138-.486,1.976,1.976,0,0,1-.113-.486.663.663,0,0,1,.154-.348,12.636,12.636,0,0,1,2.023-2.161,15.384,15.384,0,0,1,2.21-1.619l.7.413a15.147,15.147,0,0,0-2.2,1.619,12.024,12.024,0,0,0-2.023,2.153.607.607,0,0,0-.154.348,1.821,1.821,0,0,0,.105.486,2.905,2.905,0,0,1,.146.486,7.144,7.144,0,0,1,.049.915C300.964,274.715,301.012,274.941,301.117,275Z" transform="translate(-299.96 -267.122)"/><path class="b" d="M305.212,268.257a4.573,4.573,0,0,1,2.914-.809q1.384.243,1.384,2.137,0,2.525-3.318,7.843,2.371-1.505,3.715-2.274c.178-.113.275,0,.275.219a4.747,4.747,0,0,1-.049.761,4.808,4.808,0,0,0-.04.761v1.619a.494.494,0,0,1-.3.429,5.657,5.657,0,0,1-.858.3,20.92,20.92,0,0,0-3.108,1.619c-.469.267-1.174.7-2.112,1.3s-1.619,1.036-2.088,1.295c-.162.1-.251.057-.267-.105s-.065-.55-.146-.979a9.4,9.4,0,0,1-.235-1.093c0-.154.259-.421.769-.809a4.937,4.937,0,0,0,1.149-1.044,34.722,34.722,0,0,0,1.886-3.351,9.469,9.469,0,0,0,1.23-3.3,1,1,0,0,0-.469-.979,1.141,1.141,0,0,0-1.125.138,6.671,6.671,0,0,0-1.457,1.174,12.985,12.985,0,0,0-1.012,1.2,4.855,4.855,0,0,1-.494.607c-.2.121-.308-.105-.308-.664a7.137,7.137,0,0,0-.049-.914,2.9,2.9,0,0,0-.146-.486,1.821,1.821,0,0,1-.105-.486.606.606,0,0,1,.154-.348,12.018,12.018,0,0,1,2.023-2.153A15.14,15.14,0,0,1,305.212,268.257Z" transform="translate(-300.13 -267.034)"/></g><g transform="translate(118.699 81.646)"><path class="b" d="M291.516,287.177l-.7-.4a1.271,1.271,0,0,0,1.327-.146,3.885,3.885,0,0,0,1.489-1.756l.7.4a3.917,3.917,0,0,1-1.5,1.764A1.287,1.287,0,0,1,291.516,287.177Z" transform="translate(-286.684 -276.483)"/><path class="b" d="M294.1,280.07l.7.4.17.121a1.95,1.95,0,0,1,.55,1.562,4.994,4.994,0,0,1-.55,2.2l-.7-.4a4.855,4.855,0,0,0,.55-2.2,1.95,1.95,0,0,0-.55-1.562A.805.805,0,0,0,294.1,280.07Z" transform="translate(-287.31 -275.568)"/><path class="b" d="M288.187,289.337l-.7-.4-.219-.138q-1.538-1.06-1.554-3.772a11.331,11.331,0,0,1,1.53-5.528,10.586,10.586,0,0,1,3.9-4.249c1.473-.809,2.719-.979,3.731-.38l.7.4q-1.53-.882-3.731.388a10.465,10.465,0,0,0-3.909,4.241,11.445,11.445,0,0,0-1.522,5.536q0,2.711,1.554,3.763A1.437,1.437,0,0,0,288.187,289.337Z" transform="translate(-285.71 -274.508)"/><path class="b" d="M295.928,275.477c1.028.7,1.538,1.951,1.546,3.755a11.549,11.549,0,0,1-1.505,5.536,10.562,10.562,0,0,1-3.917,4.281c-1.562.9-2.873.987-3.917.243a4.251,4.251,0,0,1-1.554-3.763,11.444,11.444,0,0,1,1.522-5.536,10.465,10.465,0,0,1,3.909-4.241Q294.358,274.392,295.928,275.477Zm-2.428,7.915a4.994,4.994,0,0,0,.55-2.2,1.95,1.95,0,0,0-.55-1.562,1.222,1.222,0,0,0-1.513,0,3.892,3.892,0,0,0-1.514,1.724,4.856,4.856,0,0,0-.534,2.2,2.047,2.047,0,0,0,.55,1.619,1.2,1.2,0,0,0,1.513,0,3.917,3.917,0,0,0,1.5-1.764" transform="translate(-285.876 -274.601)"/></g><g transform="translate(111.031 219.637)"><path class="b" d="M592.524,287.009l-.7-.4a1.287,1.287,0,0,0,1.327-.138,3.94,3.94,0,0,0,1.5-1.756l.7.4a3.989,3.989,0,0,1-1.5,1.756A1.287,1.287,0,0,1,592.524,287.009Z" transform="translate(-587.692 -276.308)"/><path class="b" d="M595.1,279.89l.7.413a.648.648,0,0,1,.17.121,1.967,1.967,0,0,1,.558,1.562,5.114,5.114,0,0,1-.55,2.21l-.7-.4a5.017,5.017,0,0,0,.559-2.193,1.983,1.983,0,0,0-.559-1.562Z" transform="translate(-588.318 -275.389)"/><path class="b" d="M589.189,289.173l-.7-.413a2.106,2.106,0,0,1-.227-.138q-1.53-1.068-1.546-3.772a11.6,11.6,0,0,1,1.522-5.528,10.465,10.465,0,0,1,3.909-4.241q2.2-1.279,3.731-.388l.7.4q-1.513-.882-3.731.389a10.424,10.424,0,0,0-3.9,4.249,11.331,11.331,0,0,0-1.522,5.52q0,2.719,1.546,3.772Z" transform="translate(-586.72 -274.329)"/><path class="b" d="M596.93,275.316q1.554,1.044,1.554,3.747a11.543,11.543,0,0,1-1.514,5.536,10.4,10.4,0,0,1-3.917,4.281q-2.347,1.36-3.917.243a4.257,4.257,0,0,1-1.546-3.772,11.329,11.329,0,0,1,1.522-5.52,10.424,10.424,0,0,1,3.9-4.249C594.575,274.685,595.886,274.588,596.93,275.316Zm-2.428,7.915a5.115,5.115,0,0,0,.55-2.21,1.967,1.967,0,0,0-.558-1.562,1.206,1.206,0,0,0-1.505,0,3.844,3.844,0,0,0-1.513,1.724,4.856,4.856,0,0,0-.534,2.193,2.064,2.064,0,0,0,.542,1.619A1.206,1.206,0,0,0,593,285a3.991,3.991,0,0,0,1.5-1.756" transform="translate(-586.886 -274.424)"/></g><g transform="translate(122.767 212.497)"><path class="b" d="M612.5,278.425l-.7-.4h0l.7.413Z" transform="translate(-603.237 -267.893)"/><path class="b" d="M612.689,273.5l.7.4a.137.137,0,0,0-.121,0c-.146.081-.348.227-.6.4a7.125,7.125,0,0,1-.6.413l-.7-.4q.17-.1.607-.413c.251-.186.453-.324.591-.4S612.689,273.484,612.689,273.5Z" transform="translate(-603.155 -267.023)"/><path class="b" d="M607.542,283.409l-.7-.4a.113.113,0,0,1-.057-.113,7.733,7.733,0,0,1,.113-.809,7.377,7.377,0,0,0,.113-.971.235.235,0,0,0-.081-.21l.7.4a.243.243,0,0,1,.073.21,6.148,6.148,0,0,1-.113.971q-.076.4-.113.809A.113.113,0,0,0,607.542,283.409Z" transform="translate(-602.282 -268.442)"/><path class="b" d="M607.944,277.169l-.7-.4c0-.283.049-1,.121-2.145l.7.413Q607.96,276.749,607.944,277.169Z" transform="translate(-602.368 -267.244)"/><path class="b" d="M604.776,279.3l-.7-.4c.332-.194,1.182-.737,2.557-1.619l.7.4C605.966,278.567,605.116,279.109,604.776,279.3Z" transform="translate(-601.765 -267.751)"/><path class="b" d="M608.094,274.545l-.7-.413c.049-.89.081-1.619.081-2.072l.7.4C608.167,272.95,608.143,273.63,608.094,274.545Z" transform="translate(-602.396 -266.756)"/><path class="b" d="M602.062,283.475l-.7-.4c-.089-.057-.138-.178-.138-.372v-2a1.868,1.868,0,0,1,.275-.809l.7.413a1.847,1.847,0,0,0-.283.809v2C601.916,283.3,601.965,283.427,602.062,283.475Z" transform="translate(-601.22 -268.249)"/><path class="b" d="M602.234,278.256l-.7-.413c.89-1.619,1.538-2.857,1.942-3.747.194-.421.858-2.04,1.967-4.856l.7.413c-1.117,2.784-1.781,4.4-1.975,4.856C603.764,275.4,603.124,276.654,602.234,278.256Z" transform="translate(-601.279 -266.219)"/><path class="b" d="M607.064,269.275l-.7-.413c.146-.4.389-.987.72-1.732l.7.4C607.445,268.287,607.21,268.87,607.064,269.275Z" transform="translate(-602.2 -265.816)"/><path class="b" d="M611.634,274.675v.672c0,.154-.073.219-.227.348a2.038,2.038,0,0,1-.219.146l-.235.121-.348.178a.656.656,0,0,0-.356.607v1.489a.558.558,0,0,1-.283.542,35.346,35.346,0,0,1-3.318,1.821c-.105,0-.17,0-.17-.13q.037-.407.113-.809a6.156,6.156,0,0,0,.113-.971c0-.227-.105-.283-.34-.154-.4.235-1.02.607-1.829,1.1s-1.424.866-1.829,1.1-.736.194-.736-.243v-2a1.843,1.843,0,0,1,.283-.809c.89-1.619,1.53-2.857,1.934-3.747.194-.429.858-2.048,1.975-4.856.146-.4.38-.987.712-1.74a.736.736,0,0,1,.275-.332,6.716,6.716,0,0,1,1.352-.4,6.871,6.871,0,0,0,1.554-.526c.194-.113.3,0,.3.267a8.692,8.692,0,0,1-.081,1.279,8.771,8.771,0,0,0-.081,1.3v4.419a7.116,7.116,0,0,0,.6-.413c.251-.178.453-.324.6-.4s.17,0,.17.146v1.36C611.561,274.181,611.618,274.392,611.634,274.675Zm-4.573-1.279c.048-.9.073-1.619.073-2.08h-.065a.437.437,0,0,0-.162.235l-1.165,2.841a25.132,25.132,0,0,1-1.368,2.792c.34-.194,1.19-.737,2.566-1.619q0-.421.121-2.137" transform="translate(-601.363 -265.608)"/><path class="b" d="M610.625,265.526l.7.4a.219.219,0,0,0-.2,0,6.877,6.877,0,0,1-1.554.526,6.714,6.714,0,0,0-1.352.4.736.736,0,0,0-.275.332l-.7-.4a.754.754,0,0,1,.267-.34,7.838,7.838,0,0,1,1.36-.4,6.869,6.869,0,0,0,1.554-.526C610.512,265.509,610.577,265.493,610.625,265.526Z" transform="translate(-602.37 -265.507)"/></g></g><g transform="translate(149.49 1413.55)"><path class="h" d="M29.073,159.849H27.2V145.9a1.726,1.726,0,0,0-1.818-1.611H19.834a.386.386,0,1,0,0,.766h5.543a.905.905,0,0,1,.954.845V159.85H24.852a2.859,2.859,0,0,0,.034-.436,3.48,3.48,0,0,0-3.666-3.249,4.06,4.06,0,0,0-.811.082,2.793,2.793,0,0,0-2.423-1.31,2.973,2.973,0,0,0-.968.159,2.2,2.2,0,0,0-2.266-1.8,2.2,2.2,0,0,0-2.266,1.8,2.973,2.973,0,0,0-.968-.159,2.793,2.793,0,0,0-2.423,1.31,4.057,4.057,0,0,0-.811-.082,3.48,3.48,0,0,0-3.666,3.249,2.859,2.859,0,0,0,.034.436H3.174V145.9a.905.905,0,0,1,.954-.845H9.671a.386.386,0,1,0,0-.766H4.128A1.726,1.726,0,0,0,2.31,145.9V159.85H.432a.41.41,0,0,0-.432.383v.819a1.287,1.287,0,0,0,1.356,1.2H28.149a1.287,1.287,0,0,0,1.356-1.2v-.819A.41.41,0,0,0,29.073,159.849Zm-.432,1.2a.467.467,0,0,1-.492.436H1.356a.467.467,0,0,1-.492-.436v-.436H6.437a.386.386,0,1,0,0-.766H5.528a2.188,2.188,0,0,1-.044-.436,2.66,2.66,0,0,1,2.8-2.483,3.12,3.12,0,0,1,.916.139.483.483,0,0,0,.331-.018.4.4,0,0,0,.219-.22,1.869,1.869,0,0,1,1.768-1.129,1.994,1.994,0,0,1,1.2.4.477.477,0,0,0,.518.026.362.362,0,0,0,.173-.433,1.105,1.105,0,0,1-.072-.372,1.344,1.344,0,0,1,1.416-1.255,1.344,1.344,0,0,1,1.416,1.255,1.105,1.105,0,0,1-.072.372.362.362,0,0,0,.173.433.477.477,0,0,0,.518-.026,2,2,0,0,1,1.2-.4,1.869,1.869,0,0,1,1.768,1.129.4.4,0,0,0,.219.22.483.483,0,0,0,.331.018,3.119,3.119,0,0,1,.916-.139,2.66,2.66,0,0,1,2.8,2.483,2.193,2.193,0,0,1-.044.436H8.286a.386.386,0,1,0,0,.766H28.641Z" transform="translate(0 -137.74)"/><path class="h" d="M152.728,27.293a1.508,1.508,0,0,0-.421,1.032v1.193a.377.377,0,0,0,.214.331.481.481,0,0,0,.43,0l3.078-1.539q.176.285.373.56l-.387,1.372a.35.35,0,0,0,.079.329.454.454,0,0,0,.341.147h3.7a.454.454,0,0,0,.341-.147.35.35,0,0,0,.079-.329l-.387-1.372q.2-.275.373-.56l3.078,1.539a.481.481,0,0,0,.43,0,.377.377,0,0,0,.214-.331V28.324a1.508,1.508,0,0,0-.421-1.032l-2.052-2.182a9.323,9.323,0,0,0-.744-5.749,9.9,9.9,0,0,0-2.456-3.22.473.473,0,0,0-.606,0,9.9,9.9,0,0,0-2.456,3.22,9.324,9.324,0,0,0-.744,5.746Zm.443,1.569v-.537a.791.791,0,0,1,.221-.541l1.62-1.723a9.428,9.428,0,0,0,.63,1.565Zm3.817,1.092.246-.872h2.1l.246.872Zm6.184-2.17a.791.791,0,0,1,.221.541v.537l-2.471-1.236a9.427,9.427,0,0,0,.63-1.565Zm-4.89-10.818a9.169,9.169,0,0,1,1.779,2.343H156.5A9.168,9.168,0,0,1,158.283,16.965Zm-2.14,3.109h4.279a8.619,8.619,0,0,1-.887,8.241H157.03a8.619,8.619,0,0,1-.887-8.241Z" transform="translate(-143.53 -16.033)"/><path class="h" d="M228.088,121.853a1.831,1.831,0,1,0-1.818,1.611A1.726,1.726,0,0,0,228.088,121.853Zm-2.772,0a.961.961,0,1,1,.954.845A.905.905,0,0,1,225.316,121.853Z" transform="translate(-211.517 -114.919)"/></g><path class="b" d="M14.729,5.48a.323.323,0,0,0,.228.095A.328.328,0,0,0,15.1,5.54l2.209-1.1a.323.323,0,0,0,.177-.259l.276-3.038a.034.034,0,0,1,0-.014.318.318,0,0,0-.012-.093A.3.3,0,0,0,17.745,1a.316.316,0,0,0-.072-.114A.231.231,0,0,0,17.523.8.32.32,0,0,0,17.428.79l-.014,0-3.038.275a.323.323,0,0,0-.259.177l-1.1,2.209a.324.324,0,0,0,.061.373l.047.047-.646.646-.095-.1a.646.646,0,0,0-.914,0l-.422.422A21.968,21.968,0,0,0,8.332,2.831,1.939,1.939,0,1,0,4.816,1.2C3.088.72,1.744.886.922,1.708-.835,3.464.486,7.694,4.056,11.829L.932,14.956a.32.32,0,0,0-.074.108l-.006.013c0,.01-.009.019-.012.029L.011,18.145a.323.323,0,0,0,.312.408.333.333,0,0,0,.085-.011l3.038-.828.029-.012.015-.006a.32.32,0,0,0,.106-.072l3.131-3.129a21.912,21.912,0,0,0,2.711,2.013,1.939,1.939,0,1,0,3.511,1.632,6.592,6.592,0,0,0,1.749.272,2.917,2.917,0,0,0,2.146-.781c1.757-1.757.436-5.985-3.135-10.12l.42-.42a.646.646,0,0,0,0-.914l-.095-.1.646-.646Zm-2.808-.6,1.752,1.752L9.987,10.316,8.236,8.565ZM7.553,8.333l0,0-1.1,1.1A12.805,12.805,0,0,1,3.577,4.371,12.658,12.658,0,0,1,8.649,7.237Zm.224.688.648.648-.922.922q-.314-.323-.627-.669Zm1.105,1.105.648.648-.9.9q-.35-.317-.669-.627ZM10.216,11l0,0,1.1-1.1a12.806,12.806,0,0,1,2.873,5.064A12.65,12.65,0,0,1,9.117,12.1ZM5.706,1A1.293,1.293,0,0,1,7.534,2.827a1.325,1.325,0,0,1-1.828,0A1.293,1.293,0,0,1,5.706,1ZM4.487,12.313q.3.336.628.669L2.257,15.842,1.716,15.3l-.108-.108Zm-1.128,4.63L2.713,16.3l2.857-2.859q.334.325.668.628Zm-2.576.826.533-1.954,1.422,1.422Zm11.276.571a1.325,1.325,0,0,1-1.828,0,1.293,1.293,0,1,1,1.828,0Zm4.327-1.167c-.644.644-1.812.753-3.306.329,0-.026,0-.051,0-.077A1.937,1.937,0,0,0,9.838,16,21.4,21.4,0,0,1,6.92,13.812c-.375-.329-.753-.684-1.125-1.055s-.727-.749-1.056-1.126C1.308,7.75-.137,3.681,1.379,2.166c.644-.644,1.813-.753,3.306-.329,0,.026,0,.051,0,.077a1.937,1.937,0,0,0,3.246,1.43A21.135,21.135,0,0,1,10.582,5.3L9.107,6.779c-2.414-2.041-4.683-3.035-5.89-3.11a.319.319,0,0,0-.247.093.323.323,0,0,0-.1.246c.049.916.8,3.235,3.315,6.117.365.413.719.79,1.084,1.155s.737.714,1.157,1.086c2.5,2.175,4.875,3.227,6.12,3.3h.02a.323.323,0,0,0,.323-.34c-.048-.891-.767-3.112-3.118-5.885l1.475-1.475c3.267,3.8,4.619,7.722,3.138,9.2ZM14.614,1.693l1.969-.179L15.557,2.538a.323.323,0,1,0,.457.457L17.04,1.969l-.179,1.969-1.84.92L13.694,3.531Zm-.39,3.283-.646.646-.646-.646.646-.646Zm0,0" transform="translate(147.86 1135.532) rotate(-21)"/><g transform="translate(154.186 1268.345)"><g transform="translate(0 0)"><path class="i" d="M8.648,0H.3A.327.327,0,0,0,0,.345.327.327,0,0,0,.3.689H8.648a.327.327,0,0,0,.3-.345A.326.326,0,0,0,8.648,0Z" transform="translate(2.278 12.938)"/><path class="i" d="M8.648,0H.3A.327.327,0,0,0,0,.345.327.327,0,0,0,.3.689H8.648a.327.327,0,0,0,.3-.345A.326.326,0,0,0,8.648,0Z" transform="translate(2.278 15.113)"/><path class="i" d="M4.476,0H.3A.327.327,0,0,0,0,.345.327.327,0,0,0,.3.689H4.476a.327.327,0,0,0,.3-.345A.327.327,0,0,0,4.476,0Z" transform="translate(2.278 17.289)"/><path class="i" d="M8.648,0H.3A.327.327,0,0,0,0,.345.327.327,0,0,0,.3.689H8.648a.327.327,0,0,0,.3-.345A.327.327,0,0,0,8.648,0Z" transform="translate(10.296 8.588)"/><path class="i" d="M4.476,0H.3A.327.327,0,0,0,0,.345.327.327,0,0,0,.3.689H4.476a.327.327,0,0,0,.3-.345A.327.327,0,0,0,4.476,0Z" transform="translate(14.468 10.763)"/><path class="i" d="M.3.689H6.4A.327.327,0,0,0,6.7.345.327.327,0,0,0,6.4,0H.3A.327.327,0,0,0,0,.345.327.327,0,0,0,.3.689Z" transform="translate(1.582 1.942)"/><path class="i" d="M.3.689H3.352a.327.327,0,0,0,.3-.345A.327.327,0,0,0,3.352,0H.3A.327.327,0,0,0,0,.345.327.327,0,0,0,.3.689Z" transform="translate(1.582 3.666)"/><path class="i" d="M11.542,0H1.967A2.11,2.11,0,0,0,0,2.225V7.817a2.11,2.11,0,0,0,1.967,2.225h.069l-.394,2.473a.572.572,0,0,0,.247.579.442.442,0,0,0,.564-.085l2.7-2.9a.219.219,0,0,1,.161-.073h6.231a2.11,2.11,0,0,0,1.967-2.225V2.225A2.11,2.11,0,0,0,11.542,0ZM12.9,7.817a1.456,1.456,0,0,1-1.358,1.535H5.31a.791.791,0,0,0-.581.262l-2.42,2.6.342-2.147a.588.588,0,0,0-.527-.713H1.967A1.456,1.456,0,0,1,.61,7.817V2.225A1.456,1.456,0,0,1,1.967.689h9.574A1.456,1.456,0,0,1,12.9,2.225Z" transform="translate(0 10.369)"/><path class="i" d="M1.18,6.131H3.453a.013.013,0,0,1,.011.007l.971,1.9a.529.529,0,0,0,.967,0l.971-1.9a.013.013,0,0,1,.011-.007H8.658A1.266,1.266,0,0,0,9.838,4.8V1.334A1.266,1.266,0,0,0,8.658,0H1.18A1.266,1.266,0,0,0,0,1.334V1.48a.327.327,0,0,0,.3.345.327.327,0,0,0,.3-.345V1.334A.612.612,0,0,1,1.18.689H8.658a.612.612,0,0,1,.57.645V4.8a.612.612,0,0,1-.57.645H6.385a.615.615,0,0,0-.539.351L4.919,7.6l-.927-1.81a.615.615,0,0,0-.539-.351H1.18A.612.612,0,0,1,.61,4.8V3.091a.327.327,0,0,0-.3-.345.327.327,0,0,0-.3.345V4.8A1.266,1.266,0,0,0,1.18,6.131Z" transform="translate(0.016 0)"/><path class="i" d="M10.283,0h-8.5A1.91,1.91,0,0,0,0,2.014v.62a.327.327,0,0,0,.3.345.327.327,0,0,0,.3-.345v-.62A1.256,1.256,0,0,1,1.781.689h8.5a1.256,1.256,0,0,1,1.171,1.325v4.9A1.256,1.256,0,0,1,10.283,8.24h-.14a.559.559,0,0,0-.5.679l.285,1.791L7.853,8.483a.734.734,0,0,0-.539-.243H5.888a.347.347,0,0,0,0,.689H7.314a.163.163,0,0,1,.12.054l2.395,2.571a.423.423,0,0,0,.54.081.548.548,0,0,0,.236-.555l-.342-2.151h.02a1.91,1.91,0,0,0,1.781-2.014v-4.9A1.91,1.91,0,0,0,10.283,0Z" transform="translate(8.741 6.468)"/></g></g><g transform="matrix(1, -0.017, 0.017, 1, 265.051, 1201.552)"><g transform="translate(0 0)"><path class="h" d="M19.246,11.713,15.212,6.769a1.407,1.407,0,0,0,.963-1.242,1.457,1.457,0,0,0-1.13-1.3L16.267.884a.354.354,0,0,0-.134-.405,2.519,2.519,0,0,0-2.949,0,1.183,1.183,0,0,1-.728.236,1.184,1.184,0,0,1-.729-.237l0,0a2.522,2.522,0,0,0-2.944,0L8.765.484a1.245,1.245,0,0,1-1.454,0l0,0a2.519,2.519,0,0,0-2.949,0,.354.354,0,0,0-.134.405L5.449,4.224a1.458,1.458,0,0,0-1.132,1.3A1.407,1.407,0,0,0,5.28,6.769L1.245,11.713A4.94,4.94,0,0,0,.98,17.944a8.257,8.257,0,0,0,6.863,3.177h4.8a8.257,8.257,0,0,0,6.863-3.177,4.94,4.94,0,0,0-.265-6.231ZM6.561,1.063l0,0a2.522,2.522,0,0,0,2.944,0l.015-.012a1.246,1.246,0,0,1,1.455,0l0,0a2.519,2.519,0,0,0,2.949,0A1.255,1.255,0,0,1,15.154.926l-1.17,3.2H6.511L5.338.926a1.255,1.255,0,0,1,1.223.137ZM18.585,17.547A7.143,7.143,0,0,1,12.648,20.3h-4.8a7.143,7.143,0,0,1-5.938-2.748,4.273,4.273,0,0,1,.229-5.391L6.4,6.929h1.47A.481.481,0,0,0,8.4,6.517.481.481,0,0,0,7.871,6.1H6.111a.674.674,0,0,1-.739-.578.674.674,0,0,1,.739-.578H14.38a.674.674,0,0,1,.739.578.674.674,0,0,1-.739.578H12.621a.481.481,0,0,0-.528.413.481.481,0,0,0,.528.413h1.47l4.266,5.227a4.273,4.273,0,0,1,.229,5.391Z"/><path class="h" d="M3.2,3.655c-.123-.037-.249-.075-.375-.114V1.672a2.2,2.2,0,0,1,.565.222.556.556,0,0,0,.686-.081.371.371,0,0,0-.095-.578A3.3,3.3,0,0,0,2.822.823V.413A.457.457,0,0,0,2.33,0a.457.457,0,0,0-.492.413V.82c-.083.013-.168.03-.253.052a1.782,1.782,0,0,0-1.35,1.3A1.331,1.331,0,0,0,.8,3.6,5.026,5.026,0,0,0,1.838,4.1V6.49A2.212,2.212,0,0,1,.761,6.158a.551.551,0,0,0-.68.119.374.374,0,0,0,.142.571,3.285,3.285,0,0,0,1.616.467v.427a.457.457,0,0,0,.492.413.457.457,0,0,0,.492-.413V7.273a2.167,2.167,0,0,0,1.806-1.62A1.743,1.743,0,0,0,3.2,3.655Zm-1.786-.7A.579.579,0,0,1,1.2,2.321a.888.888,0,0,1,.637-.65V3.182A3.069,3.069,0,0,1,1.411,2.955ZM3.658,5.515a1.239,1.239,0,0,1-.837.894V4.419l.047.014C3.75,4.695,3.7,5.328,3.658,5.515Z" transform="translate(7.916 9.817)"/><path class="h" d="M.492.825A.547.547,0,0,0,.839.7.385.385,0,0,0,.983.413.385.385,0,0,0,.839.121.547.547,0,0,0,.492,0,.547.547,0,0,0,.144.121.385.385,0,0,0,0,.413.385.385,0,0,0,.144.7.547.547,0,0,0,.492.825Z" transform="translate(9.754 6.104)"/></g></g><g transform="translate(253.733 1340.71)"><path class="j" d="M16.9,21.875H13.652a.747.747,0,0,1-.742-.451l-.352-1.314a13.481,13.481,0,0,1-3.079-.957l-1.488.741a.958.958,0,0,1-.952-.066l-2.3-1.721a.468.468,0,0,1-.088-.72l.986-1.107a7.325,7.325,0,0,1-1.278-2.307l-1.756-.263A.645.645,0,0,1,2,13.153v-2.43a.642.642,0,0,1,.6-.556L4.361,9.9A7.331,7.331,0,0,1,5.638,7.6l-.991-1.11a.466.466,0,0,1,.089-.713l2.3-1.721A.96.96,0,0,1,8,3.985l1.479.74a13.471,13.471,0,0,1,3.082-.959l.351-1.312A.747.747,0,0,1,13.652,2H16.9a.747.747,0,0,1,.742.451l.352,1.314a13.391,13.391,0,0,1,3.086.959l1.479-.742a.958.958,0,0,1,.953.066l2.3,1.721a.467.467,0,0,1,.09.72L24.912,7.6a7.384,7.384,0,0,1,1.279,2.3l1.749.263a.646.646,0,0,1,.61.557v2.43a.642.642,0,0,1-.6.556l-1.755.263a7.384,7.384,0,0,1-1.279,2.3l.99,1.114a.466.466,0,0,1-.089.713l-2.3,1.721a.961.961,0,0,1-.962.067l-1.479-.74a13.39,13.39,0,0,1-3.084.959l-.349,1.31A.747.747,0,0,1,16.9,21.875ZM9.472,18.531a.471.471,0,0,1,.2.043A12.551,12.551,0,0,0,12.967,19.6a.342.342,0,0,1,.288.221l.4,1.487h3.243l.4-1.487a.342.342,0,0,1,.289-.221,12.465,12.465,0,0,0,3.293-1.024.507.507,0,0,1,.417,0l1.684.843L25.273,17.7l-1.106-1.242a.291.291,0,0,1-.038-.041.224.224,0,0,1,.01-.289,6.89,6.89,0,0,0,1.369-2.466.348.348,0,0,1,.3-.216l1.988-.3v-2.43l-1.986-.3a.348.348,0,0,1-.3-.216,6.89,6.89,0,0,0-1.369-2.466.224.224,0,0,1-.012-.289.29.29,0,0,1,.047-.051l1.1-1.233L22.979,4.452,21.3,5.3a.506.506,0,0,1-.417,0,12.465,12.465,0,0,0-3.293-1.024.342.342,0,0,1-.289-.221l-.4-1.487H13.652l-.4,1.487a.342.342,0,0,1-.288.221A12.551,12.551,0,0,0,9.671,5.3a.489.489,0,0,1-.413,0L7.57,4.454,5.276,6.17,6.4,7.433a.226.226,0,0,1,0,.309,6.846,6.846,0,0,0-1.365,2.465.355.355,0,0,1-.319.22l-1.967.3v2.43l1.979.3a.354.354,0,0,1,.306.218A6.846,6.846,0,0,0,6.41,16.133a.226.226,0,0,1,0,.309L5.282,17.7l2.289,1.718,1.659-.829a.472.472,0,0,1,.24-.063Z" transform="translate(-2 -2)"/><path class="j" d="M45.21,53.412a.373.373,0,0,1-.37-.22.27.27,0,0,1,.2-.319,6.957,6.957,0,0,0,.933-.415.466.466,0,0,1,.519.07.24.24,0,0,1-.076.39,7.852,7.852,0,0,1-1.046.465A.487.487,0,0,1,45.21,53.412Z" transform="translate(-28.586 -38.097)"/><path class="j" d="M23.965,27.925c-4.4,0-7.965-2.67-7.965-5.963S19.566,16,23.965,16s7.965,2.67,7.965,5.963c0,.1,0,.2-.012.3a.363.363,0,0,1-.4.266c-.209-.01-.368-.144-.355-.3.007-.088.011-.173.011-.261,0-2.979-3.226-5.395-7.206-5.395s-7.206,2.415-7.206,5.395,3.226,5.395,7.206,5.395q.171,0,.341-.008a.358.358,0,0,1,.4.266c.013.157-.146.292-.356.3C24.224,27.922,24.094,27.925,23.965,27.925Z" transform="translate(-10.69 -12.025)"/><path class="j" d="M52.768,46.153A.409.409,0,0,1,52.431,46a.226.226,0,0,1,.03-.3,4.8,4.8,0,0,0,.556-.7.445.445,0,0,1,.508-.129c.188.069.265.24.172.38a5.352,5.352,0,0,1-.621.775A.43.43,0,0,1,52.768,46.153Z" transform="translate(-33.277 -32.683)"/><path class="j" d="M42.152,34.782A.391.391,0,0,1,41.8,34.6a.241.241,0,0,1,.11-.314l1.5-.956-1.5-.956a.238.238,0,0,1-.042-.4.473.473,0,0,1,.535-.032l1.84,1.172a.242.242,0,0,1,0,.433L42.4,34.715A.462.462,0,0,1,42.152,34.782Z" transform="translate(-26.688 -23.389)"/><path class="j" d="M27.595,34.782a.462.462,0,0,1-.246-.068l-1.84-1.172a.242.242,0,0,1,0-.433l1.84-1.172a.473.473,0,0,1,.535.032.238.238,0,0,1-.042.4l-1.5.956,1.5.956a.241.241,0,0,1,.11.314A.391.391,0,0,1,27.595,34.782Z" transform="translate(-16.509 -23.389)"/><path class="j" d="M33.009,32.643a.5.5,0,0,1-.132-.018c-.2-.055-.3-.218-.224-.365L35.21,27.1a.426.426,0,0,1,.488-.167c.2.055.3.219.223.366l-2.557,5.157A.391.391,0,0,1,33.009,32.643Z" transform="translate(-21.012 -19.842)"/></g></g></svg>