<svg xmlns="http://www.w3.org/2000/svg" width="1551" height="397.118" viewBox="0 0 1551 397.118"><defs><style>.a{fill:#2916a9;}.b{fill:#303ba0;}.c{opacity:0.3;}.d{fill:#858688;}.e{fill:#d5d7db;}.f{fill:#c0c1c5;}.g{fill:#e9ecff;}.h{fill:#5e4eb7;}</style></defs><g transform="translate(-173 -2808.382)"><ellipse class="a" cx="66" cy="12.5" rx="66" ry="12.5" transform="translate(233 2935.5)"/><ellipse class="a" cx="66" cy="12.5" rx="66" ry="12.5" transform="translate(870 2935.5)"/><ellipse class="a" cx="66" cy="12.5" rx="66" ry="12.5" transform="translate(537 3120.5)"/><ellipse class="a" cx="66" cy="12.5" rx="66" ry="12.5" transform="translate(1174 3120.5)"/><ellipse class="a" cx="66" cy="12.5" rx="66" ry="12.5" transform="translate(1532 2935.5)"/><g transform="translate(64.442 2634.752)"><g transform="translate(181.13 173.63)"><path class="b" d="M162.539,193.07,160.683,192c-.128,0-.192-.256-.171-.533l1.835,1.088C162.347,192.814,162.411,193.006,162.539,193.07Z" transform="translate(-156.799 -153.401)"/><path class="b" d="M162.345,192.707l-1.835-1.067v-.32l1.857,1.088Z" transform="translate(-156.797 -153.572)"/><path class="b" d="M162.355,199.325l-1.835-1.088q.32-10.8.277-13.017l1.856,1.067C162.654,187.8,162.569,192.112,162.355,199.325Z" transform="translate(-156.786 -160.488)"/><path class="b" d="M162.518,190.652l-1.835-1.067-.043-8.215,1.856,1.067Z" transform="translate(-156.65 -164.854)"/><path class="b" d="M160.57,181.07l1.856,1.088c.107,0,.149.256.149.619l-1.856-1.067C160.719,181.347,160.677,181.134,160.57,181.07Z" transform="translate(-156.729 -165.194)"/><path class="b" d="M164.882,173.63l1.835,1.088h-.192l-1.835-1.067Z" transform="translate(-152.057 -173.63)"/><path class="b" d="M165.216,175.828l-1.856-1.067c.661-.3,1.6-.683,2.838-1.131l1.835,1.067C166.86,175.166,165.857,175.55,165.216,175.828Z" transform="translate(-153.565 -173.63)"/><path class="b" d="M163.986,176.1l-1.856-1.067c.619-.235,1.536-.512,2.731-.875l1.856,1.067C165.395,175.59,164.5,175.952,163.986,176.1Z" transform="translate(-154.96 -173.029)"/><path class="b" d="M163.785,175.744l-1.835-1.067.277-.107,1.856,1.067Z" transform="translate(-155.164 -172.564)"/><path class="b" d="M163.476,176.669,161.62,175.6a2.625,2.625,0,0,1,.7-.982l1.856,1.067A2.411,2.411,0,0,0,163.476,176.669Z" transform="translate(-155.538 -172.507)"/><path class="b" d="M160.855,183.914l-1.835-1.067a32.69,32.69,0,0,0,5.548-7.767l1.856,1.067a32.82,32.82,0,0,1-5.569,7.767Z" transform="translate(-158.487 -171.986)"/><path class="b" d="M166.487,176.243l.277-.107c.619-.213,1.515-.512,2.731-.875.64-.277,1.579-.661,2.817-1.131.213,0,.341,0,.341.405v.619c-.171,1.707-.235,5.761-.235,12.078v19.12a2.475,2.475,0,0,1-.405,1.216,2.817,2.817,0,0,1-.9.96l-3.478,2.027c-1.536.9-2.689,1.6-3.457,2.134s-.875.213-.875-.363v-.32c.213-7.213.3-11.523.3-13.038v-8.215c0-.512,0-.726-.3-.619a9.154,9.154,0,0,0-1.472,1.195,9.665,9.665,0,0,1-1.472,1.174c-.512.3-.747.107-.768-.576s0-1.558,0-2.838v-2.817a1.835,1.835,0,0,1,.6-1.174,32.821,32.821,0,0,0,5.569-7.767,2.412,2.412,0,0,1,.725-1.088Z" transform="translate(-157.845 -173.063)"/><path class="b" d="M160.84,187.3l-1.856-1.088c-.128,0-.213-.3-.213-.661v-5.655a1.729,1.729,0,0,1,.6-1.174l1.835,1.067a1.835,1.835,0,0,0-.6,1.174v5.655C160.605,187.32,160.69,187.213,160.84,187.3Z" transform="translate(-158.77 -167.858)"/></g><g transform="translate(150.893 187.604)"><path class="b" d="M151.525,196.62l-1.835-1.067a3.436,3.436,0,0,0,3.542-.384,10.178,10.178,0,0,0,3.926-4.609l1.856,1.067a10.093,10.093,0,0,1-3.948,4.609,3.393,3.393,0,0,1-3.542.384Z" transform="translate(-138.828 -168.407)"/><path class="b" d="M153,185.75l1.835,1.088a2.918,2.918,0,0,1,.448.32,5.249,5.249,0,0,1,1.451,4.118,13.166,13.166,0,0,1-1.451,5.8l-1.856-1.067a13.21,13.21,0,0,0,1.472-5.8,5.463,5.463,0,0,0-1.451-4.14Z" transform="translate(-135.075 -173.861)"/><path class="b" d="M151.044,219.3l-1.835-1.088-.533-.32q-4.033-2.817-4.076-9.944a30.174,30.174,0,0,1,4.012-14.6,27.89,27.89,0,0,1,10.307-11.182q5.847-3.372,9.88-1.024l1.835,1.088q-4.033-2.369-9.859,1a27.741,27.741,0,0,0-10.307,11.2,30.024,30.024,0,0,0-4.012,14.574q0,7.17,4.076,9.944Z" transform="translate(-144.6 -180.178)"/><path class="b" d="M170.1,181.933q4.033,2.774,4.076,9.923a30.258,30.258,0,0,1-3.99,14.6,27.74,27.74,0,0,1-10.307,11.267c-4.118,2.369-7.575,2.6-10.349.661s-4.076-5.164-4.076-9.944a30.023,30.023,0,0,1,4.012-14.575,27.741,27.741,0,0,1,10.307-11.2Q166,179.116,170.1,181.933Zm-6.4,20.891a13.167,13.167,0,0,0,1.451-5.8,5.249,5.249,0,0,0-1.451-4.118,3.18,3.18,0,0,0-3.99,0,10.2,10.2,0,0,0-3.99,4.524,12.8,12.8,0,0,0-1.408,5.8,5.527,5.527,0,0,0,1.43,4.268,3.158,3.158,0,0,0,4.012,0,10.093,10.093,0,0,0,3.948-4.609" transform="translate(-143.636 -179.604)"/></g><g transform="translate(811.971 181.351)"><path class="b" d="M465.622,184.593l1.835,1.067a4.268,4.268,0,0,0-3.03-.363l-1.856-1.067a4.268,4.268,0,0,1,3.052.363Z" transform="translate(-445.136 -169.482)"/><path class="b" d="M456.406,197.493l-1.856-1.067a.32.32,0,0,1-.149-.256l1.856,1.088a.234.234,0,0,0,.149.235Z" transform="translate(-454.4 -155.794)"/><path class="b" d="M456.256,197.553l-1.857-1.088a3.715,3.715,0,0,1,.107-.555L456.342,197a2.475,2.475,0,0,0-.085.555Z" transform="translate(-454.4 -156.088)"/><path class="b" d="M456.285,198.926l-1.835-1.088c.213-.79.555-2.006.982-3.628l1.835,1.067C456.84,196.9,456.52,198.03,456.285,198.926Z" transform="translate(-454.343 -158.016)"/><path class="b" d="M457.416,198.079l-1.857-1.067a21.329,21.329,0,0,0,2.134-.341,10.8,10.8,0,0,0,3.649-1.174c3.158-1.835,4.737-3.948,4.716-6.4a1.451,1.451,0,0,0-.576-1.366l1.857,1.067a1.473,1.473,0,0,1,.576,1.387c0,2.411-1.558,4.524-4.716,6.4a10.8,10.8,0,0,1-3.649,1.174C458.142,197.994,457.438,198.1,457.416,198.079Z" transform="translate(-453.085 -165.364)"/><path class="b" d="M456.745,197.1l-1.835-1.067c.128-.768.341-1.9.683-3.436l1.835,1.067C457.108,195.2,456.873,196.356,456.745,197.1Z" transform="translate(-453.822 -159.841)"/><path class="b" d="M457.065,194.257l-1.835-1.067a1.644,1.644,0,0,1,.7-1.11l1.857,1.067a1.664,1.664,0,0,0-.726,1.11Z" transform="translate(-453.459 -160.431)"/><path class="b" d="M457.842,198.747l-1.856-1.067q-.192,0-.192-.448a29.879,29.879,0,0,1,.277-5.484,1.665,1.665,0,0,1,.768-1.131,26.111,26.111,0,0,1,2.411-1.174c1.067-.469,1.878-.853,2.411-1.152a4.823,4.823,0,0,0,1.728-1.792,4.735,4.735,0,0,0,.683-2.39,1.865,1.865,0,0,0-.683-1.728l1.835,1.088c.448.256.683.832.683,1.707a5.186,5.186,0,0,1-2.39,4.268c-.555.3-1.344.683-2.411,1.152s-1.878.854-2.433,1.174a1.665,1.665,0,0,0-.768,1.131,30.687,30.687,0,0,0-.256,5.484A.381.381,0,0,0,457.842,198.747Z" transform="translate(-452.849 -171.43)"/><path class="b" d="M468.359,177.785l1.835,1.067a4.418,4.418,0,0,0-1.878-.533,12.27,12.27,0,0,0-7.191,2.134l-1.835-1.067a12.227,12.227,0,0,1,7.191-2.134,4.525,4.525,0,0,1,1.878.533Z" transform="translate(-448.855 -177.248)"/><path class="b" d="M457.273,185.946l-1.835-1.067a.725.725,0,0,1-.278-.469L457,185.477a.833.833,0,0,0,.277.469Z" transform="translate(-453.538 -169.128)"/><path class="b" d="M457.145,187.507l-1.835-1.067c0-.747-.107-1.622-.171-2.561a4.93,4.93,0,0,0-.149-1.259l1.835,1.067a6.743,6.743,0,0,0,.171,1.259A15.863,15.863,0,0,1,457.145,187.507Z" transform="translate(-453.731 -171.158)"/><path class="b" d="M465.692,179.845a12.269,12.269,0,0,1,7.191-2.134c2.5.213,3.756,1.792,3.756,4.737a15.962,15.962,0,0,1-3.969,10.008,3.926,3.926,0,0,1,3.756.918,5.59,5.59,0,0,1,1.387,4.161,16.366,16.366,0,0,1-3.67,10.029,25.308,25.308,0,0,1-7.81,6.892,33.377,33.377,0,0,1-5.954,2.859c-3.393,1.152-5.1,1.408-5.1.79a2.467,2.467,0,0,1,0-.555c.235-.811.555-2.027.981-3.649.128-.747.363-1.9.683-3.436a1.665,1.665,0,0,1,.725-1.11,15.407,15.407,0,0,0,2.134-.341,10.8,10.8,0,0,0,3.649-1.174c3.158-1.835,4.716-3.948,4.716-6.4q0-2.923-4.481-.32l-1.6.96-1.3.811-1.622.918c-.7.3-1.046.192-1.046-.341a30.694,30.694,0,0,1,.256-5.484,1.664,1.664,0,0,1,.768-1.131c.555-.32,1.366-.7,2.433-1.174s1.856-.854,2.411-1.152a5.185,5.185,0,0,0,2.39-4.268c0-2.134-1.387-2.454-4.161-.875a28.251,28.251,0,0,0-4.694,3.8l-.213.149c-.213.107-.405,0-.534-.469s0-1.622-.149-2.561a4.421,4.421,0,0,0-.171-1.259,2.929,2.929,0,0,1,0-1.238c0-.982,1.3-2.5,3.948-4.567a46.527,46.527,0,0,1,5.292-3.393Z" transform="translate(-453.422 -176.727)"/><path class="b" d="M456.855,188.687l-1.835-1.067a10,10,0,0,1,0-1.238c0-.982,1.3-2.518,3.926-4.566a45.809,45.809,0,0,1,5.292-3.606l1.835,1.067a46.525,46.525,0,0,0-5.271,3.606c-2.646,2.134-3.948,3.585-3.948,4.567A3.96,3.96,0,0,0,456.855,188.687Z" transform="translate(-453.718 -176.158)"/></g><g transform="translate(781.328 196.875)"><path class="b" d="M446.975,200.982l-1.835-1.088a3.393,3.393,0,0,0,3.5-.363,10.392,10.392,0,0,0,3.948-4.63l1.856,1.067a10.308,10.308,0,0,1-3.969,4.631A3.35,3.35,0,0,1,446.975,200.982Z" transform="translate(-434.257 -172.757)"/><path class="b" d="M448.42,190.09l1.835,1.067a2.924,2.924,0,0,1,.448.32,5.185,5.185,0,0,1,1.472,4.118,13.485,13.485,0,0,1-1.451,5.826l-1.856-1.067a13.228,13.228,0,0,0,1.473-5.825,5.334,5.334,0,0,0-1.472-4.118,2.928,2.928,0,0,0-.448-.32Z" transform="translate(-430.538 -178.211)"/><path class="b" d="M446.548,223.652l-1.856-1.067-.576-.384q-4.033-2.8-4.076-9.944a30.2,30.2,0,0,1,4.012-14.553,27.526,27.526,0,0,1,10.306-11.2q5.826-3.35,9.88-1.024l1.835,1.088c-2.689-1.579-6-1.238-9.88,1a27.335,27.335,0,0,0-10.285,11.2,30.025,30.025,0,0,0-4.012,14.574q0,7.127,4.076,9.923Z" transform="translate(-440.04 -184.523)"/><path class="b" d="M465.557,186.277c2.71,1.857,4.076,5.143,4.076,9.9a30.257,30.257,0,0,1-3.99,14.6,27.74,27.74,0,0,1-10.328,11.31q-6.188,3.564-10.328.619t-4.076-9.987a30.024,30.024,0,0,1,4.012-14.574,27.334,27.334,0,0,1,10.285-11.2C459.326,184.634,462.761,184.4,465.557,186.277Zm-6.4,20.891a13.486,13.486,0,0,0,1.451-5.825,5.186,5.186,0,0,0-1.472-4.118,3.18,3.18,0,0,0-3.969,0,9.965,9.965,0,0,0-3.99,4.524,12.569,12.569,0,0,0-1.408,5.8,5.4,5.4,0,0,0,1.43,4.268,3.116,3.116,0,0,0,3.99,0,10.307,10.307,0,0,0,3.969-4.63" transform="translate(-439.054 -183.958)"/></g><g transform="translate(1429.219 196.445)"><path class="b" d="M750.6,200.76l-1.835-1.067a3.393,3.393,0,0,0,3.5-.363,10.52,10.52,0,0,0,3.948-4.63l1.856,1.067a10.435,10.435,0,0,1-3.969,4.631A3.393,3.393,0,0,1,750.6,200.76Z" transform="translate(-737.877 -172.554)"/><path class="b" d="M752,189.88l1.835,1.088a2.14,2.14,0,0,1,.448.32,5.142,5.142,0,0,1,1.472,4.118,13.483,13.483,0,0,1-1.451,5.826l-1.856-1.067a13.228,13.228,0,0,0,1.472-5.826,5.271,5.271,0,0,0-1.472-4.118Z" transform="translate(-734.203 -178.019)"/><path class="b" d="M750.168,223.432l-1.857-1.067-.576-.363q-4.033-2.817-4.076-9.944a30.262,30.262,0,0,1,4.012-14.574,27.741,27.741,0,0,1,10.307-11.2q5.783-3.329,9.837-1l1.835,1.067q-3.99-2.347-9.837,1.024a27.4,27.4,0,0,0-10.285,11.182,30.091,30.091,0,0,0-4.011,14.575q0,7.17,4.076,9.944Z" transform="translate(-743.66 -184.322)"/><path class="b" d="M769.156,186.084q4.1,2.753,4.1,9.9a30.493,30.493,0,0,1-3.99,14.6,27.57,27.57,0,0,1-10.328,11.288q-6.167,3.585-10.328.64t-4.076-9.944a30.088,30.088,0,0,1,4.012-14.574,27.4,27.4,0,0,1,10.285-11.182Q765.016,183.225,769.156,186.084Zm-6.4,20.891a13.488,13.488,0,0,0,1.451-5.826,5.143,5.143,0,0,0-1.473-4.118,3.158,3.158,0,0,0-3.969,0,10.007,10.007,0,0,0-3.991,4.545,12.418,12.418,0,0,0-1.408,5.783,5.441,5.441,0,0,0,1.43,4.268,3.158,3.158,0,0,0,3.991,0A10.434,10.434,0,0,0,762.754,207" transform="translate(-742.674 -183.762)"/></g><g transform="translate(1460.045 177.969)"><path class="b" d="M760.1,197.5l-1.835-1.067a.278.278,0,0,1-.128-.149L760,197.347A.127.127,0,0,0,760.1,197.5Z" transform="translate(-758.068 -152.287)"/><path class="b" d="M760.013,200.352l-1.856-1.067a14.077,14.077,0,0,1,0-2.39,18.588,18.588,0,0,1,.235-3.265l1.835,1.088a31.85,31.85,0,0,0-.213,3.243A13.89,13.89,0,0,0,760.013,200.352Z" transform="translate(-758.106 -155.291)"/><path class="b" d="M769.783,187l1.857,1.067a2.134,2.134,0,0,1,.832,1.92c0,2.667-1.771,5.015-5.313,7.063a13.464,13.464,0,0,1-6.594,2.134l-1.835-1.067a13.763,13.763,0,0,0,6.594-2.134c3.542-2.134,5.313-4.4,5.292-7.063A2.134,2.134,0,0,0,769.783,187Z" transform="translate(-757.399 -162.809)"/><path class="b" d="M760.375,193.367l-1.835-1.088a1.3,1.3,0,0,1,.405,0l1.835,1.067a.96.96,0,0,0-.405.021Z" transform="translate(-757.614 -156.842)"/><path class="b" d="M760.035,196.26l-1.835-1.088c.213-1.771.448-2.731.726-2.9l1.835,1.088C760.483,193.508,760.248,194.468,760.035,196.26Z" transform="translate(-758 -156.834)"/><path class="b" d="M767.573,175.7l1.835,1.067H768.9l-1.857-1.088C767.3,175.677,767.467,175.635,767.573,175.7Z" transform="translate(-747.976 -175.663)"/><path class="b" d="M774.118,182.787l1.835,1.067a4.459,4.459,0,0,0-.79-.363,9.261,9.261,0,0,0-7.469,1.579c-.448.256-1.088.662-1.9,1.238s-1.494.982-1.921,1.238l-1.835-1.088c.427-.235,1.024-.619,1.9-1.216s1.451-.982,1.9-1.238a9.282,9.282,0,0,1,7.469-1.579,3.478,3.478,0,0,1,.811.363Z" transform="translate(-753.646 -168.241)"/><path class="b" d="M764.465,182.186l-1.835-1.067q7.02-4.076,9.41-5.4l1.856,1.088C772.3,177.683,769.138,179.476,764.465,182.186Z" transform="translate(-752.977 -175.599)"/><path class="b" d="M761.325,183.307l-1.835-1.067c.341-.3,2.582-1.622,6.7-3.99l1.835,1.067C763.907,181.686,761.667,183.03,761.325,183.307Z" transform="translate(-756.537 -172.731)"/><path class="b" d="M760.817,200.016l-1.835-1.088q-.192,0-.192-.512c0-1.771,0-4.524.171-8.237s.192-6.4.192-8.237a3.012,3.012,0,0,1,.342-1.3l1.835,1.088a3.178,3.178,0,0,0-.341,1.28c0,1.771,0,4.524-.171,8.258s-.192,6.4-.192,8.215C760.625,199.76,760.689,199.93,760.817,200.016Z" transform="translate(-757.331 -170.021)"/><path class="b" d="M768.654,181.676c4.673-2.71,7.831-4.5,9.432-5.377.427-.235.64-.149.662.256,0,1.046-.107,2.539-.3,4.481-.235,2.5-.512,3.82-.854,4.033l-.256.128c-3.649,1.728-5.911,2.838-6.807,3.35a10.029,10.029,0,0,0-2.838,1.985,10.007,10.007,0,0,0-.406,3.372.94.94,0,0,0,0,.491c.427-.256,1.046-.64,1.921-1.238s1.451-.982,1.9-1.238a9.261,9.261,0,0,1,7.469-1.579c2.134.726,3.222,2.8,3.222,6.188q0,12.355-13.251,20.059a53.818,53.818,0,0,1-5.143,2.5c-2.817,1.216-4.268,1.579-4.417,1.067a13.853,13.853,0,0,1,0-2.39,31.729,31.729,0,0,1,.214-3.244c.213-1.792.448-2.753.726-2.9a.961.961,0,0,1,.405,0,13.464,13.464,0,0,0,6.594-2.134c3.542-2.134,5.313-4.4,5.313-7.063,0-1.451-.64-2.134-1.963-2.134a7.341,7.341,0,0,0-3.649,1.195c-.6.341-1.472.96-2.646,1.792s-2.134,1.43-2.667,1.792-.854.192-.854-.405c0-1.771,0-4.524.192-8.215s.171-6.4.171-8.258a3.177,3.177,0,0,1,.341-1.28,3.264,3.264,0,0,1,.79-1.131A62,62,0,0,1,768.654,181.676Z" transform="translate(-757.165 -175.09)"/><path class="b" d="M760.975,182.318l-1.835-1.088a3.089,3.089,0,0,1,.789-1.11l1.835,1.067A3.266,3.266,0,0,0,760.975,182.318Z" transform="translate(-756.934 -170.61)"/></g><g class="c" transform="translate(262.751 282.949)"><path class="d" d="M435.076,377.948,197.063,239.608l-.043-11.928L435.055,366Z" transform="translate(-197.02 -221.662)"/><path class="e" d="M435.055,369.2,197.02,230.878l10.392-6.018L445.447,363.2Z" transform="translate(-197.02 -224.86)"/><path class="f" d="M318.962,289.69l.021,11.928-10.392,6.018-.021-11.95Z" transform="translate(-70.535 -151.35)"/></g><g class="c" transform="translate(590.068 289.201)"><g transform="translate(0)"><path class="d" d="M355.28,380.868,593.294,242.55l.043-11.95L355.3,368.919Z" transform="translate(-344.888 -224.604)"/><path class="e" d="M360.812,372.1,598.847,233.786l-10.392-6L350.42,366.109Z" transform="translate(-350.399 -227.79)"/><path class="f" d="M350.431,292.61l-.021,11.95,10.392,6,.021-11.95Z" transform="translate(-350.41 -154.291)"/></g></g><path class="b" d="M330.129,226.494a6.275,6.275,0,0,0,.576-1.43,1.581,1.581,0,0,0,0-.3,6.974,6.974,0,0,0,.192-1.494h0v-6.4a7.175,7.175,0,0,1-.192,1.494,1.577,1.577,0,0,1,0,.3,6.27,6.27,0,0,1-.576,1.43l-.128.235a9.549,9.549,0,0,1-.9,1.238,1.623,1.623,0,0,1-.171.235,15.246,15.246,0,0,1-1.323,1.28l-.555.427-.427.3a11.066,11.066,0,0,1-1.11.726l-76.649,44.534a17.564,17.564,0,0,1-2.923,1.387h0a25.607,25.607,0,0,1-3.222.982h0a29.566,29.566,0,0,1-3.436.576h0a27.924,27.924,0,0,1-3.542.213h0a30.229,30.229,0,0,1-3.414-.192h-.448a30.465,30.465,0,0,1-3.158-.533h0a23.328,23.328,0,0,1-3.329-1l-.341-.128a19.062,19.062,0,0,1-2.817-1.344L145.1,224.488a12,12,0,0,1-1.28-.811h0a9.948,9.948,0,0,1-1.046-.832h0a11.27,11.27,0,0,1-.875-.875h0a9.03,9.03,0,0,1-.7-.875h0c-.213-.32-.405-.662-.576-.982h0a7.917,7.917,0,0,1-.405-.982h0a5.037,5.037,0,0,1-.235-.939v-.128a7.307,7.307,0,0,1,0-.982h0v6.508a5.221,5.221,0,0,0,0,.576,1.452,1.452,0,0,1,0,.3.278.278,0,0,1,0,.128v.128a2.243,2.243,0,0,0,.128.512,1.581,1.581,0,0,0,0,.3h0v.107a.565.565,0,0,0,.171.469,3.724,3.724,0,0,0,.213.405h0l.256.448.277.427h0l.192.277c.107.128.213.277.341.405l.171.192h0l.128.149.405.405.341.32h0l.512.427.491.341h0a7.738,7.738,0,0,0,.683.469l.555.32,77.14,44.534.256.149.96.512,1.195.533.405.149.341.128.768.277a20.013,20.013,0,0,0,2.283.64h0l1.856.363,1.323.171h8.215l.747-.128.747-.128.747-.149h.64l.726-.192.7-.213.726-.235.726-.256h0l.64-.235.747-.341.79-.384.768-.427,76.628-44.534h0l.9-.555.192-.149.427-.3.405-.3.128-.128a15.229,15.229,0,0,0,1.323-1.28l.192-.213a11.185,11.185,0,0,0,.875-1.259Z" transform="translate(1.034 49.029)"/><path class="g" d="M144.683,254.285c-7.49-4.268-7.533-11.352,0-15.663l77.887-45.281a29.874,29.874,0,0,1,27.058,0l78.4,45.281c7.511,4.268,7.533,11.331.107,15.663l-77.908,45.26a29.874,29.874,0,0,1-27.058,0Z" transform="translate(0 18.678)"/><path class="b" d="M475.021,315.753a9.756,9.756,0,0,0,.576-1.408v-.32a7,7,0,0,0,.213-1.472h0v-6.4a5.8,5.8,0,0,1-.192,1.472,1.77,1.77,0,0,1,0,.32,6.531,6.531,0,0,1-.576,1.408.832.832,0,0,1-.128.235,9.543,9.543,0,0,1-.875,1.259l-.171.213a12.8,12.8,0,0,1-1.344,1.28l-.533.427-.427.32c-.363.235-.726.491-1.131.726l-76.628,44.534a24.582,24.582,0,0,1-2.923,1.387h0a22.568,22.568,0,0,1-3.222.982h0a30.028,30.028,0,0,1-3.414.6h0a32.144,32.144,0,0,1-3.521.192h0a30.23,30.23,0,0,1-3.414-.192h-.427a29.868,29.868,0,0,1-3.179-.555h0a27.108,27.108,0,0,1-3.073-.939l-.341-.128a22.779,22.779,0,0,1-2.817-1.323l-77.14-44.534-1.28-.832h0c-.384-.277-.747-.555-1.067-.832h0a11.077,11.077,0,0,1-.875-.854h0q-.384-.448-.7-.9h0a7.839,7.839,0,0,1-.6-.96h0a9.466,9.466,0,0,1-.427-.96v-.107a6.725,6.725,0,0,1-.235-.939.149.149,0,0,0,0-.107,7.815,7.815,0,0,1,0-.982h0v6.4a5.2,5.2,0,0,0,0,.576,1.664,1.664,0,0,1,0,.3l.128.79v.384l.192.469.192.427h0a4.508,4.508,0,0,0,.235.448l.277.427h0l.192.277.341.427.171.192h0l.128.128.405.427.341.3h0l.512.427.491.363h0l.7.448.534.341,77.14,44.534.256.149.982.491,1.174.533.405.149.363.128.768.3c.725.235,1.494.448,2.262.64h0l1.856.384,1.323.171h7.469l.768-.107h.768l.747-.149.726-.149h.662l.726-.171.725-.213.7-.235.726-.256h0l.619-.256.747-.341.79-.363.768-.427L470.5,320.212h0a9.126,9.126,0,0,0,.9-.555l.192-.128.427-.32.405-.3.128-.128a11.007,11.007,0,0,0,1.344-1.28l.171-.213a7.874,7.874,0,0,0,.875-1.259Z" transform="translate(165.641 150.263)"/><path class="g" d="M289.735,343.565c-7.511-4.268-7.533-11.352-.107-15.684l77.908-45.26a29.875,29.875,0,0,1,27.058,0l78.4,45.26c7.49,4.268,7.533,11.352,0,15.684l-77.887,45.26a29.874,29.874,0,0,1-27.058,0Z" transform="translate(164.447 119.911)"/><g class="c" transform="translate(907.441 283.632)"><path class="d" d="M737.218,378.258,499.183,239.94l-.043-11.95L737.175,366.309Z" transform="translate(-499.14 -221.994)"/><path class="e" d="M737.175,369.495,499.14,231.176l10.413-6L747.567,363.5Z" transform="translate(-499.14 -225.18)"/><path class="f" d="M621.082,290l.043,11.95-10.392,6L610.69,296Z" transform="translate(-372.655 -151.681)"/></g><g class="c" transform="translate(1234.758 289.863)"><path class="d" d="M657.4,381.178,895.435,242.86l.042-11.95L657.443,369.25Z" transform="translate(-647.008 -224.914)"/><path class="e" d="M662.942,372.436,900.977,234.1l-10.413-6L652.55,366.44Z" transform="translate(-652.507 -228.1)"/><path class="f" d="M652.573,292.93l-.043,11.928,10.392,6,.043-11.928Z" transform="translate(-652.53 -154.59)"/></g><path class="b" d="M933.784,226.792a6.53,6.53,0,0,0,.576-1.408,1.8,1.8,0,0,0,0-.32,6.97,6.97,0,0,0,.192-1.472h0v-6.4a6.969,6.969,0,0,1-.192,1.472,1.8,1.8,0,0,1,0,.32,6.528,6.528,0,0,1-.576,1.408l-.128.235a12.1,12.1,0,0,1-.875,1.259l-.192.213a10.817,10.817,0,0,1-1.323,1.28l-.555.427-.427.32a11.008,11.008,0,0,1-1.11.7l-76.649,44.556a21.755,21.755,0,0,1-2.923,1.387h0a22.557,22.557,0,0,1-3.222.982h0a29.594,29.594,0,0,1-3.435.6h0a32.246,32.246,0,0,1-3.542.192h0a30.237,30.237,0,0,1-3.414-.192h-.448a30.466,30.466,0,0,1-3.158-.533h0a27.12,27.12,0,0,1-3.073-.939l-.341-.128a22.79,22.79,0,0,1-2.817-1.323l-77.14-44.556a11.983,11.983,0,0,1-1.28-.811h0c-.384-.277-.747-.555-1.067-.832h0a11.18,11.18,0,0,1-.875-.854h0q-.384-.448-.7-.9h0a9.035,9.035,0,0,1-.576-.982h0a7.939,7.939,0,0,1-.405-.982h0a6.724,6.724,0,0,1-.235-.939s0,0,0-.128a7.286,7.286,0,0,1,0-.96h0v6.4a5.183,5.183,0,0,0,0,.576,1.673,1.673,0,0,1,0,.3.277.277,0,0,1,0,.128s0,0,0,.128a4.44,4.44,0,0,0,.128.512v.3h0a4.275,4.275,0,0,0,.171.469,2.426,2.426,0,0,0,.213.405h0a4.583,4.583,0,0,0,.235.448l.277.427h0l.192.277c.107.128.213.277.341.405l.171.213h0l.128.128a3.635,3.635,0,0,0,.405.405l.341.32h0l.512.427.491.363h0l.683.448.555.32,77.14,44.556.256.149.96.491,1.195.533.405.149.341.128.768.277a21.335,21.335,0,0,0,2.283.64h0c.619.149,1.238.277,1.856.363s.875.128,1.323.192h8.216l1,.3.747-.149.747-.149h.64l.726-.192.7-.192.726-.235.726-.277h0l.64-.256.747-.341a5.4,5.4,0,0,0,.789-.384l.768-.405,76.628-44.556h0a9.15,9.15,0,0,0,.9-.555l.192-.128.427-.32.405-.3.128-.128a12.8,12.8,0,0,0,1.344-1.28l.171-.213a9.541,9.541,0,0,0,.875-1.259Z" transform="translate(685.777 49.392)"/><path class="g" d="M748.463,254.584c-7.49-4.268-7.533-11.331,0-15.663l77.887-45.26a29.875,29.875,0,0,1,27.058,0l78.4,45.26c7.511,4.268,7.533,11.352,0,15.663L853.9,299.865a29.874,29.874,0,0,1-27.058,0Z" transform="translate(684.618 19.04)"/><path class="b" d="M777.153,316.114a6.283,6.283,0,0,0,.576-1.43v-.3a7.171,7.171,0,0,0,.192-1.494h0v-6.4a7.34,7.34,0,0,1-.192,1.494,1.212,1.212,0,0,0,0,.3,7.438,7.438,0,0,1-.576,1.43,1.3,1.3,0,0,1-.149.213,7.869,7.869,0,0,1-.875,1.259l-.171.213a9.639,9.639,0,0,1-1.344,1.28,5.192,5.192,0,0,1-.534.427l-.427.32c-.341.256-.726.491-1.11.726l-76.649,44.534a19.437,19.437,0,0,1-2.923,1.387h0a31.367,31.367,0,0,1-3.222.982h0a29.578,29.578,0,0,1-3.435.576h0c-1.174.128-2.347.192-3.542.213h0a20.242,20.242,0,0,1-3.414-.192h-.448a30.5,30.5,0,0,1-3.158-.533h0a24.092,24.092,0,0,1-3.051-.939,2.137,2.137,0,0,1-.342-.128,20.318,20.318,0,0,1-2.838-1.323l-77.14-44.534c-.448-.256-.875-.533-1.28-.811h0a9.927,9.927,0,0,1-1.045-.832h0a8.293,8.293,0,0,1-.875-.854h0c-.256-.3-.491-.576-.7-.875h0a9.519,9.519,0,0,1-.576-.96h0a9.517,9.517,0,0,1-.405-.982h0a5.484,5.484,0,0,1-.235-.939.275.275,0,0,1,0-.128,7.645,7.645,0,0,1,0-.982h0v6.4a5.288,5.288,0,0,0,0,.6,1.679,1.679,0,0,0,0,.3v.128a.149.149,0,0,0,0,.107,3.892,3.892,0,0,0,0,.534.482.482,0,0,0,.107.3h0a4.508,4.508,0,0,0,.171.491l.192.405h0l.256.427a5.136,5.136,0,0,0,.277.448h0l.192.256.341.427.171.192h0v.149l.427.405a2.274,2.274,0,0,0,.341.3h0l.512.427.469.341h0l.683.469.555.32,77.14,44.534.256.149.96.491a11.983,11.983,0,0,0,1.2.533l.405.149a2.129,2.129,0,0,0,.341.128l.768.3c.747.235,1.494.448,2.283.64h0l1.857.363,1.3.171h.726l1.11.107h5.633l.768-.107h.747l.747-.128.747-.149h.64l.725-.192.7-.213.726-.235.726-.256h0l.619-.235.768-.341.768-.384.768-.427,76.649-44.534h0l.9-.576.171-.128.427-.32a2.862,2.862,0,0,0,.405-.3l.149-.107a12.785,12.785,0,0,0,1.323-1.3.834.834,0,0,0,.171-.213,9.742,9.742,0,0,0,.9-1.259Z" transform="translate(508.2 150.648)"/><path class="g" d="M591.844,343.875c-7.49-4.268-7.533-11.352,0-15.684l77.887-45.26a29.875,29.875,0,0,1,27.058,0l78.4,45.26c7.49,4.268,7.533,11.352,0,15.684l-77.887,45.3a29.874,29.874,0,0,1-27.058,0Z" transform="translate(507.029 120.262)"/><path class="b" d="M631.85,226.494a7.422,7.422,0,0,0,.576-1.43v-.3a5.864,5.864,0,0,0,.213-1.494h0v-6.4a6.011,6.011,0,0,1-.213,1.494v.3a9.116,9.116,0,0,1-.576,1.43l-.149.235a7.722,7.722,0,0,1-.875,1.238l-.171.235a13.02,13.02,0,0,1-1.344,1.28l-.533.427-.427.3c-.363.256-.726.491-1.131.726l-76.628,44.534a19.364,19.364,0,0,1-2.923,1.387h0a24.648,24.648,0,0,1-3.222.982h0a30.374,30.374,0,0,1-3.436.576h0a28.188,28.188,0,0,1-3.542.213h0a30.5,30.5,0,0,1-3.41-.192h-.431a31.857,31.857,0,0,1-3.179-.533h0a24.044,24.044,0,0,1-3.051-.918l-.341-.128a19.212,19.212,0,0,1-2.838-1.344l-77.46-44.577c-.448-.256-.875-.533-1.28-.811h0a10.2,10.2,0,0,1-1.067-.832h0c-.32-.3-.6-.576-.875-.875h0a6.844,6.844,0,0,1-.726-.875h0a7.836,7.836,0,0,1-.576-.982h0a5.6,5.6,0,0,1-.405-.982h0a5.04,5.04,0,0,0-.235-.939v-.128a4.944,4.944,0,0,1,0-.982h0v6.508a5.221,5.221,0,0,0,0,.576,1.444,1.444,0,0,0,0,.3.278.278,0,0,0,0,.128v.128l.128.512v.3h0v.107l.192.469.192.405h0a4.814,4.814,0,0,0,.256.448l.256.427h0l.192.277.32.405.192.192h0l.128.149.405.405.341.32h0l.533.427.469.341h0l.7.469.534.32,77.14,44.534.277.149.96.512,1.195.533.405.149.341.128.768.277a19.677,19.677,0,0,0,2.262.64h0l1.857.363,1.3.171h8.215l.768-.128.747-.128.726-.149h.662l.7-.192.725-.213.7-.235.726-.256h.107l.619-.235.768-.341.768-.384.768-.427L626.6,230.975h0l.9-.555.171-.149.427-.3.405-.3.128-.128a13,13,0,0,0,1.344-1.28l.171-.213a8.956,8.956,0,0,0,.875-1.259Z" transform="translate(343.022 49.029)"/><path class="g" d="M446.344,254.285c-7.49-4.268-7.533-11.352,0-15.663l77.887-45.281a29.875,29.875,0,0,1,27.058,0l78.4,45.281c7.49,4.268,7.533,11.331,0,15.663L551.8,299.545a29.874,29.874,0,0,1-27.058,0Z" transform="translate(342.048 18.678)"/><g transform="translate(482.414 372.739)"><path class="b" d="M316.875,276.465l1.857,1.088h-.512q-3.564,2.006-9.795,6l-1.835-1.067q6.252-3.969,9.773-6.018A.534.534,0,0,1,316.875,276.465Z" transform="translate(-292.442 -256.211)"/><path class="b" d="M302.617,288.011l-1.835-1.067a.47.47,0,0,1-.192-.384l1.857,1.067A.533.533,0,0,0,302.617,288.011Z" transform="translate(-299.246 -244.689)"/><path class="b" d="M302.639,289.01l-1.856-1.067a18.83,18.83,0,0,0-.363-2.6l1.835,1.088C302.469,287.559,302.575,288.413,302.639,289.01Z" transform="translate(-299.438 -246.073)"/><path class="b" d="M312.229,272.32l1.856,1.067a2.71,2.71,0,0,1,1.152,2.539,24.965,24.965,0,0,1-3.243,8.706,91.537,91.537,0,0,1-4.972,8.834,13.018,13.018,0,0,1-3.03,2.753c-1.344.982-2.027,1.686-2.027,2.134a24.805,24.805,0,0,0,.619,2.881l-1.835-1.088a22.98,22.98,0,0,1-.619-2.881c0-.405.661-1.088,2.027-2.134a12.993,12.993,0,0,0,3.03-2.753,93.513,93.513,0,0,0,4.972-8.834,24.713,24.713,0,0,0,3.222-8.685A2.646,2.646,0,0,0,312.229,272.32Z" transform="translate(-299.767 -260.836)"/><path class="b" d="M314.534,267.518l1.856,1.067a4.779,4.779,0,0,0-1.494-.533,12.056,12.056,0,0,0-7.682,2.134L305.38,269.1a12.056,12.056,0,0,1,7.661-2.134A4.587,4.587,0,0,1,314.534,267.518Z" transform="translate(-293.814 -266.938)"/><path class="b" d="M303.012,286.614l-1.856-1.067c-.256-.149-.405-.747-.405-1.792a15.517,15.517,0,0,0-.128-2.411,6.98,6.98,0,0,0-.363-1.28,5.207,5.207,0,0,1-.3-1.28,1.75,1.75,0,0,1,.405-.918,33.311,33.311,0,0,1,5.335-5.7,40.556,40.556,0,0,1,5.826-4.268l1.835,1.088a39.921,39.921,0,0,0-5.8,4.268,31.69,31.69,0,0,0-5.335,5.676,1.6,1.6,0,0,0-.405.917,4.8,4.8,0,0,0,.277,1.28,7.661,7.661,0,0,1,.384,1.28,18.83,18.83,0,0,1,.128,2.411C302.606,285.867,302.734,286.465,303.012,286.614Z" transform="translate(-299.96 -265.848)"/><path class="b" d="M312.352,269.6a12.057,12.057,0,0,1,7.682-2.134q3.649.64,3.649,5.634,0,6.658-8.749,20.677,6.252-3.969,9.794-6c.469-.3.726,0,.726.576a12.5,12.5,0,0,1-.128,2.006,12.68,12.68,0,0,0-.107,2.006v4.268a1.3,1.3,0,0,1-.789,1.131,14.919,14.919,0,0,1-2.262.79,55.122,55.122,0,0,0-8.194,4.268c-1.238.7-3.094,1.856-5.569,3.436s-4.268,2.731-5.505,3.414c-.427.256-.661.149-.7-.277s-.171-1.451-.384-2.582a24.792,24.792,0,0,1-.619-2.881c0-.405.683-1.11,2.027-2.134a13.019,13.019,0,0,0,3.03-2.753,91.542,91.542,0,0,0,4.972-8.834,24.969,24.969,0,0,0,3.244-8.706,2.646,2.646,0,0,0-1.238-2.582,3.009,3.009,0,0,0-2.966.363,17.587,17.587,0,0,0-3.841,3.094,34.192,34.192,0,0,0-2.667,3.158,12.8,12.8,0,0,1-1.3,1.6c-.533.32-.811-.277-.811-1.75a18.824,18.824,0,0,0-.128-2.411,7.659,7.659,0,0,0-.384-1.28,4.8,4.8,0,0,1-.277-1.28,1.6,1.6,0,0,1,.406-.917,31.69,31.69,0,0,1,5.335-5.676A39.919,39.919,0,0,1,312.352,269.6Z" transform="translate(-298.951 -266.372)"/></g><g transform="translate(452.006 388.892)"><path class="b" d="M292.655,290.952l-1.835-1.067a3.35,3.35,0,0,0,3.5-.384,10.243,10.243,0,0,0,3.926-4.631l1.856,1.067a10.328,10.328,0,0,1-3.948,4.652A3.393,3.393,0,0,1,292.655,290.952Z" transform="translate(-279.916 -262.758)"/><path class="b" d="M294.1,280.07l1.835,1.067.448.32a5.143,5.143,0,0,1,1.451,4.118,13.165,13.165,0,0,1-1.451,5.8l-1.856-1.067a12.8,12.8,0,0,0,1.451-5.8,5.143,5.143,0,0,0-1.451-4.118A2.133,2.133,0,0,0,294.1,280.07Z" transform="translate(-276.197 -268.201)"/><path class="b" d="M292.24,313.605l-1.857-1.067-.576-.363q-4.054-2.8-4.1-9.944a29.874,29.874,0,0,1,4.033-14.574,27.911,27.911,0,0,1,10.285-11.2c3.884-2.134,7.17-2.582,9.837-1l1.856,1.067q-4.033-2.326-9.837,1.024a27.591,27.591,0,0,0-10.307,11.182,30.174,30.174,0,0,0-4.012,14.6q0,7.148,4.1,9.923A3.794,3.794,0,0,0,292.24,313.605Z" transform="translate(-285.71 -274.508)"/><path class="b" d="M311.226,276.264c2.71,1.835,4.054,5.143,4.076,9.9a30.45,30.45,0,0,1-3.969,14.6,27.848,27.848,0,0,1-10.328,11.288c-4.118,2.369-7.575,2.6-10.328.64s-4.1-5.164-4.1-9.923a30.173,30.173,0,0,1,4.012-14.6A27.59,27.59,0,0,1,300.9,276.99Q307.087,273.4,311.226,276.264Zm-6.4,20.869a13.165,13.165,0,0,0,1.451-5.8,5.143,5.143,0,0,0-1.451-4.118,3.222,3.222,0,0,0-3.99,0,10.265,10.265,0,0,0-3.99,4.545,12.8,12.8,0,0,0-1.408,5.8,5.4,5.4,0,0,0,1.451,4.268,3.158,3.158,0,0,0,3.99,0,10.328,10.328,0,0,0,3.948-4.652" transform="translate(-284.723 -273.955)"/></g><g transform="translate(1094.327 388.509)"><path class="b" d="M593.676,290.77,591.82,289.7a3.393,3.393,0,0,0,3.5-.363,10.39,10.39,0,0,0,3.948-4.63l1.856,1.067a10.52,10.52,0,0,1-3.948,4.631,3.393,3.393,0,0,1-3.5.363Z" transform="translate(-580.937 -262.557)"/><path class="b" d="M595.1,279.89l1.835,1.088a1.706,1.706,0,0,1,.448.32,5.185,5.185,0,0,1,1.472,4.118,13.483,13.483,0,0,1-1.451,5.826l-1.856-1.067a13.231,13.231,0,0,0,1.473-5.783,5.228,5.228,0,0,0-1.473-4.118Z" transform="translate(-577.218 -268.022)"/><path class="b" d="M593.228,313.467l-1.835-1.088a5.559,5.559,0,0,1-.6-.363q-4.033-2.817-4.076-9.944a30.577,30.577,0,0,1,4.012-14.574,27.59,27.59,0,0,1,10.307-11.182q5.8-3.371,9.837-1.024l1.835,1.067q-3.99-2.326-9.837,1.024a27.483,27.483,0,0,0-10.285,11.2,29.874,29.874,0,0,0-4.012,14.553q0,7.17,4.076,9.944Z" transform="translate(-586.72 -274.329)"/><path class="b" d="M612.216,276.108q4.1,2.753,4.1,9.88a30.428,30.428,0,0,1-3.99,14.6,27.421,27.421,0,0,1-10.328,11.288q-6.188,3.585-10.328.64t-4.076-9.944a29.875,29.875,0,0,1,4.012-14.553,27.484,27.484,0,0,1,10.285-11.2C606.006,274.444,609.463,274.188,612.216,276.108Zm-6.4,20.869a13.487,13.487,0,0,0,1.451-5.826,5.186,5.186,0,0,0-1.472-4.118,3.18,3.18,0,0,0-3.969,0,10.137,10.137,0,0,0-3.99,4.545,12.8,12.8,0,0,0-1.408,5.783,5.441,5.441,0,0,0,1.43,4.268,3.179,3.179,0,0,0,4.012,0A10.52,10.52,0,0,0,605.814,297" transform="translate(-585.734 -273.758)"/></g><g transform="translate(1125.268 369.685)"><path class="b" d="M613.635,279.087,611.8,278.02h0l1.857,1.088Z" transform="translate(-589.224 -251.318)"/><path class="b" d="M614.848,273.566l1.856,1.067a.363.363,0,0,0-.32,0c-.384.213-.918.6-1.579,1.067a18.8,18.8,0,0,1-1.579,1.088l-1.857-1.067q.448-.256,1.6-1.088c.661-.491,1.195-.854,1.558-1.067S614.848,273.523,614.848,273.566Z" transform="translate(-589.711 -256.488)"/><path class="b" d="M608.776,287.515l-1.835-1.067a.3.3,0,0,1-.15-.3,20.417,20.417,0,0,1,.3-2.134,19.405,19.405,0,0,0,.3-2.561.619.619,0,0,0-.213-.555l1.857,1.067a.64.64,0,0,1,.192.555,16.245,16.245,0,0,1-.3,2.561q-.2,1.059-.3,2.134A.3.3,0,0,0,608.776,287.515Z" transform="translate(-594.906 -248.053)"/><path class="b" d="M609.1,281.342l-1.857-1.067c0-.747.128-2.625.32-5.655l1.856,1.088Q609.139,280.232,609.1,281.342Z" transform="translate(-594.394 -255.174)"/><path class="b" d="M605.915,282.615l-1.835-1.067c.875-.512,3.116-1.942,6.743-4.268l1.856,1.067C609.052,280.673,606.811,282.1,605.915,282.615Z" transform="translate(-597.977 -252.158)"/><path class="b" d="M609.246,278.611l-1.856-1.088c.128-2.347.213-4.268.213-5.463l1.835,1.067C609.438,274.407,609.375,276.2,609.246,278.611Z" transform="translate(-594.224 -258.076)"/><path class="b" d="M603.439,289.343l-1.857-1.067c-.235-.149-.363-.469-.363-.982v-5.271a4.93,4.93,0,0,1,.726-2.134l1.856,1.088a4.866,4.866,0,0,0-.747,2.134c0,.6,0,1.494,0,2.646v2.625C603.055,288.874,603.183,289.215,603.439,289.343Z" transform="translate(-601.22 -249.198)"/><path class="b" d="M603.386,293.012l-1.857-1.088c2.347-4.268,4.054-7.533,5.121-9.88.512-1.11,2.262-5.377,5.185-12.8l1.856,1.088c-2.945,7.341-4.695,11.608-5.207,12.8C607.419,285.479,605.734,288.786,603.386,293.012Z" transform="translate(-600.868 -261.274)"/><path class="b" d="M608.216,272.785,606.36,271.7c.384-1.067,1.024-2.6,1.9-4.567l1.835,1.067C609.219,270.181,608.6,271.718,608.216,272.785Z" transform="translate(-595.392 -263.666)"/><path class="b" d="M627.449,288.813v1.771c0,.405-.192.576-.6.918a5.355,5.355,0,0,1-.576.384l-.619.32-.917.469a1.729,1.729,0,0,0-.939,1.6V298.2a1.472,1.472,0,0,1-.747,1.43,93.175,93.175,0,0,1-8.749,4.8c-.277,0-.448,0-.448-.341q.1-1.074.3-2.134a16.267,16.267,0,0,0,.3-2.561c0-.6-.277-.747-.9-.405-1.067.619-2.689,1.6-4.823,2.9s-3.756,2.283-4.823,2.9-1.942.512-1.942-.64v-5.271a4.863,4.863,0,0,1,.747-2.134c2.347-4.268,4.033-7.533,5.1-9.88.512-1.131,2.262-5.4,5.207-12.8.384-1.067,1-2.6,1.878-4.588a1.941,1.941,0,0,1,.726-.875,17.7,17.7,0,0,1,3.563-1.067,18.118,18.118,0,0,0,4.1-1.387c.512-.3.789,0,.789.7a22.919,22.919,0,0,1-.213,3.371,23.131,23.131,0,0,0-.213,3.414v11.651a18.774,18.774,0,0,0,1.579-1.088c.661-.469,1.195-.854,1.579-1.067s.448,0,.448.384v3.585C627.257,287.511,627.406,288.066,627.449,288.813Zm-12.057-3.372c.128-2.369.192-4.268.192-5.484h-.171a1.152,1.152,0,0,0-.427.619l-3.073,7.49a66.184,66.184,0,0,1-3.606,7.362c.9-.512,3.137-1.942,6.765-4.268q0-1.11.32-5.634" transform="translate(-600.37 -264.907)"/><path class="b" d="M616.148,265.556,618,266.623a.576.576,0,0,0-.534,0,18.122,18.122,0,0,1-4.1,1.387,17.685,17.685,0,0,0-3.564,1.067,1.941,1.941,0,0,0-.726.875l-1.835-1.067a1.985,1.985,0,0,1,.7-.9,20.641,20.641,0,0,1,3.585-1.046,18.115,18.115,0,0,0,4.1-1.387C615.85,265.514,616.02,265.471,616.148,265.556Z" transform="translate(-594.383 -265.507)"/></g></g><path class="b" d="M38.968,14.447a.852.852,0,0,0,.6.25.865.865,0,0,0,.381-.089L45.777,11.7a.853.853,0,0,0,.468-.682L46.972,3a.09.09,0,0,1,0-.037.837.837,0,0,0-.032-.246.782.782,0,0,0-.019-.1.832.832,0,0,0-.191-.3.608.608,0,0,0-.394-.209.843.843,0,0,0-.25-.032c-.013,0-.024-.006-.037,0L38.04,2.8a.853.853,0,0,0-.682.468L34.445,9.1a.853.853,0,0,0,.16.984l.125.125-1.7,1.7-.25-.251a1.7,1.7,0,0,0-2.41,0l-1.114,1.114A57.919,57.919,0,0,0,22.1,7.463a5.112,5.112,0,1,0-9.269-4.293C8.278,1.9,4.733,2.337,2.566,4.5c-4.632,4.63-1.148,15.781,8.263,26.683L2.593,39.432a.845.845,0,0,0-.2.286c-.006.012-.01.023-.015.035s-.025.05-.032.077L.166,47.839a.853.853,0,0,0,.823,1.076.878.878,0,0,0,.223-.03L9.221,46.7a.821.821,0,0,0,.076-.032l.038-.016a.845.845,0,0,0,.28-.19l8.256-8.249a57.772,57.772,0,0,0,7.148,5.308,5.113,5.113,0,1,0,9.258,4.3,17.38,17.38,0,0,0,4.612.718,7.692,7.692,0,0,0,5.657-2.059C49.178,41.851,45.695,30.7,36.281,19.8l1.108-1.108a1.7,1.7,0,0,0,0-2.41l-.25-.255,1.7-1.7Zm-7.4-1.581,4.618,4.618L26.467,27.2,21.85,22.581Zm-11.515,9.1-.011.007-2.9,2.9c-5.02-5.947-7.038-10.833-7.574-13.349,2.6.54,7.447,2.562,13.371,7.555Zm.592,1.815,1.709,1.709-2.43,2.43q-.828-.852-1.654-1.764ZM23.555,26.7l1.709,1.709-2.375,2.375q-.922-.836-1.764-1.654Zm3.516,2.312L27.079,29l2.889-2.889c5.02,5.948,7.04,10.834,7.576,13.351-2.6-.54-7.448-2.561-13.37-7.553ZM15.18,2.633A3.409,3.409,0,0,1,20,7.454a3.493,3.493,0,0,1-4.82,0,3.408,3.408,0,0,1,0-4.821Zm-3.214,29.83q.8.885,1.656,1.763L6.087,41.768,4.66,40.34l-.284-.285ZM8.993,44.67l-1.7-1.7,7.531-7.538q.879.856,1.762,1.655ZM2.2,46.848,3.606,41.7l3.749,3.749Zm29.729,1.506a3.493,3.493,0,0,1-4.82,0,3.408,3.408,0,1,1,4.82,0Zm11.409-3.077c-1.7,1.7-4.778,1.985-8.717.868,0-.067.01-.134.01-.2a5.106,5.106,0,0,0-8.558-3.769,56.411,56.411,0,0,1-7.692-5.759c-.989-.867-1.984-1.8-2.966-2.783s-1.916-1.975-2.785-2.969C3.584,20.434-.224,9.706,3.771,5.71c1.7-1.7,4.78-1.985,8.717-.868,0,.067-.01.134-.01.2a5.107,5.107,0,0,0,8.558,3.769,55.722,55.722,0,0,1,7,5.171l-3.889,3.889c-6.364-5.382-12.346-8-15.53-8.2a.842.842,0,0,0-.652.245.853.853,0,0,0-.252.65c.13,2.415,2.114,8.529,8.739,16.127.962,1.089,1.9,2.084,2.857,3.044s1.943,1.881,3.049,2.862c6.589,5.735,12.852,8.508,16.136,8.711h.053a.852.852,0,0,0,.852-.9c-.126-2.35-2.021-8.205-8.222-15.516l3.889-3.889c8.613,10.02,12.177,20.359,8.273,24.265ZM38.665,4.463l5.192-.472-2.7,2.7a.852.852,0,1,0,1.2,1.2l2.7-2.7-.471,5.191-4.852,2.425-3.5-3.5Zm-1.028,8.655-1.7,1.7-1.7-1.7,1.7-1.7Zm0,0" transform="translate(267.445 2878.343) rotate(-21)"/><g transform="translate(582.576 3057.982)"><g transform="translate(0.015 0)"><path class="h" d="M78.873,281.541h-22a.916.916,0,0,0,0,1.817h22a.916.916,0,0,0,0-1.817Z" transform="translate(-50.066 -247.428)"/><path class="h" d="M78.873,328.871h-22a.916.916,0,0,0,0,1.817h22a.916.916,0,0,0,0-1.817Z" transform="translate(-50.066 -289.024)"/><path class="h" d="M67.874,376.2h-11a.916.916,0,0,0,0,1.817h11a.916.916,0,0,0,0-1.817Z" transform="translate(-50.066 -330.619)"/><path class="h" d="M276.19,186.88h-22a.916.916,0,0,0,0,1.817h22a.916.916,0,0,0,0-1.817Z" transform="translate(-226.243 -164.237)"/><path class="h" d="M367.851,234.21h-11a.916.916,0,0,0,0,1.817h11a.916.916,0,0,0,0-1.817Z" transform="translate(-317.905 -205.832)"/><path class="h" d="M39.754,44.086H55.824a.916.916,0,0,0,0-1.817H39.754a.916.916,0,0,0,0,1.817Z" transform="translate(-34.779 -37.148)"/><path class="h" d="M39.754,81.584h8.035a.916.916,0,0,0,0-1.817H39.754a.916.916,0,0,0,0,1.817Z" transform="translate(-34.779 -70.102)"/><path class="h" d="M30.445,225.624H5.2c-2.86,0-5.186,2.631-5.186,5.865v14.745c0,3.234,2.326,5.865,5.186,5.865h.181l-1.038,6.521a1.508,1.508,0,0,0,.651,1.528,1.165,1.165,0,0,0,1.486-.224l7.11-7.633a.578.578,0,0,1,.425-.192H30.445c2.86,0,5.186-2.631,5.186-5.865V231.489C35.631,228.255,33.3,225.624,30.445,225.624Zm3.579,20.611a3.84,3.84,0,0,1-3.579,4.048H14.016a2.086,2.086,0,0,0-1.531.691L6.1,257.824l.9-5.662a1.55,1.55,0,0,0-1.39-1.88H5.2a3.839,3.839,0,0,1-3.579-4.048V231.489A3.84,3.84,0,0,1,5.2,227.441H30.445a3.84,3.84,0,0,1,3.579,4.048Z" transform="translate(-0.015 -198.287)"/><path class="h" d="M3.513,16.164H9.506a.034.034,0,0,1,.03.019l2.56,5a1.394,1.394,0,0,0,2.551,0l2.56-5a.034.034,0,0,1,.03-.02h5.993a3.337,3.337,0,0,0,3.111-3.518V3.518A3.337,3.337,0,0,0,23.229,0H3.513A3.337,3.337,0,0,0,.4,3.518V3.9a.861.861,0,0,0,.8.909.861.861,0,0,0,.8-.909V3.518a1.613,1.613,0,0,1,1.5-1.7H23.229a1.613,1.613,0,0,1,1.5,1.7v9.129a1.613,1.613,0,0,1-1.5,1.7H17.236a1.622,1.622,0,0,0-1.421.926l-2.445,4.773-2.444-4.773a1.622,1.622,0,0,0-1.421-.926H3.512a1.613,1.613,0,0,1-1.5-1.7V8.15a.861.861,0,0,0-.8-.909.861.861,0,0,0-.8.909v4.5a3.337,3.337,0,0,0,3.111,3.518Z" transform="translate(-0.361 0)"/><path class="h" d="M242.224,140.754H219.808c-2.589,0-4.7,2.382-4.7,5.31V147.7a.81.81,0,1,0,1.607,0v-1.634a3.313,3.313,0,0,1,3.088-3.492h22.416a3.313,3.313,0,0,1,3.088,3.492v12.922a3.313,3.313,0,0,1-3.088,3.492h-.368a1.475,1.475,0,0,0-1.322,1.789l.752,4.722-5.467-5.869a1.936,1.936,0,0,0-1.422-.642h-3.76a.916.916,0,0,0,0,1.817h3.76a.429.429,0,0,1,.315.142l6.314,6.778a1.116,1.116,0,0,0,1.425.214,1.445,1.445,0,0,0,.623-1.464l-.9-5.67h.053c2.589,0,4.7-2.382,4.7-5.31V146.064C246.919,143.136,244.813,140.754,242.224,140.754Z" transform="translate(-192.068 -123.7)"/></g></g><g transform="matrix(1, -0.017, 0.017, 1, 855.657, 2867.462)"><g transform="translate(61.857 -0.001)"><path class="h" d="M112.6,30.88,101.963,17.846a3.709,3.709,0,0,0,2.538-3.275,3.841,3.841,0,0,0-2.978-3.434l3.222-8.806a.933.933,0,0,0-.354-1.068,6.642,6.642,0,0,0-7.775,0,3.119,3.119,0,0,1-1.92.621,3.121,3.121,0,0,1-1.923-.624l-.007-.005a6.649,6.649,0,0,0-7.762-.01l-.04.031a3.283,3.283,0,0,1-3.832-.005l-.01-.008a6.642,6.642,0,0,0-7.775,0,.933.933,0,0,0-.354,1.069l3.229,8.8a3.843,3.843,0,0,0-2.985,3.436,3.709,3.709,0,0,0,2.538,3.275L65.139,30.88c-4.115,5.042-4.376,11.184-.7,16.429s10.443,8.376,18.1,8.376H95.2c7.652,0,14.416-3.131,18.095-8.376s3.418-11.386-.7-16.429ZM79.155,2.8l.01.008a6.649,6.649,0,0,0,7.762.01l.04-.031A3.284,3.284,0,0,1,90.8,2.8l.007.005a6.642,6.642,0,0,0,7.775,0,3.309,3.309,0,0,1,3.226-.36l-3.085,8.432h-19.7L75.93,2.441a3.308,3.308,0,0,1,3.225.36Zm31.7,43.462C107.675,50.8,101.823,53.51,95.2,53.51H82.537c-6.62,0-12.472-2.709-15.655-7.246a11.267,11.267,0,0,1,.6-14.213L78.732,18.269h3.876A1.268,1.268,0,0,0,84,17.181a1.268,1.268,0,0,0-1.392-1.088H77.97a1.777,1.777,0,0,1-1.948-1.523,1.777,1.777,0,0,1,1.948-1.523h21.8a1.777,1.777,0,0,1,1.948,1.523,1.777,1.777,0,0,1-1.948,1.523H95.132a1.268,1.268,0,0,0-1.392,1.088,1.268,1.268,0,0,0,1.392,1.088h3.876L110.254,32.05a11.267,11.267,0,0,1,.6,14.213Z" transform="translate(-61.857 0.001)"/><path class="h" d="M217.012,247.608c-.325-.1-.657-.2-.989-.3v-4.93a5.794,5.794,0,0,1,1.49.584,1.467,1.467,0,0,0,1.81-.214.977.977,0,0,0-.25-1.524,8.7,8.7,0,0,0-3.05-1.083v-1.082a1.316,1.316,0,0,0-2.592,0v1.075c-.22.035-.442.08-.668.137a4.7,4.7,0,0,0-3.558,3.416,3.509,3.509,0,0,0,1.5,3.786,13.252,13.252,0,0,0,2.727,1.3v6.308a5.833,5.833,0,0,1-2.841-.874,1.453,1.453,0,0,0-1.794.315.987.987,0,0,0,.375,1.506,8.66,8.66,0,0,0,4.26,1.23v1.125a1.316,1.316,0,0,0,2.592,0v-1.238a5.714,5.714,0,0,0,4.763-4.272C221.262,250.5,219.78,248.429,217.012,247.608ZM212.3,245.76a1.528,1.528,0,0,1-.551-1.671,2.341,2.341,0,0,1,1.679-1.714v3.983A8.091,8.091,0,0,1,212.3,245.76Zm5.926,6.751a3.266,3.266,0,0,1-2.206,2.356v-5.247l.125.038C218.472,250.348,218.329,252.017,218.229,252.512Z" transform="translate(-187.714 -212.087)"/><path class="h" d="M247.281,150.144a1.443,1.443,0,0,0,.916-.319.968.968,0,0,0,0-1.538,1.476,1.476,0,0,0-1.833,0,.968.968,0,0,0,0,1.538A1.442,1.442,0,0,0,247.281,150.144Z" transform="translate(-220.268 -131.875)"/></g></g><g transform="translate(1215 3060.799)"><path class="h" d="M41.28,54.4H32.72a1.97,1.97,0,0,1-1.957-1.189l-.927-3.464a35.542,35.542,0,0,1-8.118-2.524l-3.924,1.953A2.527,2.527,0,0,1,15.284,49L9.232,44.465A1.234,1.234,0,0,1,9,42.566l2.6-2.92a19.314,19.314,0,0,1-3.369-6.082L3.6,32.872A1.7,1.7,0,0,1,2,31.4V25a1.693,1.693,0,0,1,1.588-1.465l4.636-.7a19.329,19.329,0,0,1,3.368-6.081L8.978,13.828a1.228,1.228,0,0,1,.234-1.88l6.061-4.536a2.532,2.532,0,0,1,2.536-.177l3.9,1.95a35.517,35.517,0,0,1,8.125-2.528L30.76,3.2A1.97,1.97,0,0,1,32.72,2h8.56a1.97,1.97,0,0,1,1.957,1.189l.927,3.464A35.306,35.306,0,0,1,52.3,9.182l3.9-1.958a2.527,2.527,0,0,1,2.512.175l6.061,4.536a1.23,1.23,0,0,1,.236,1.9l-2.6,2.926a19.469,19.469,0,0,1,3.372,6.076l4.611.692A1.7,1.7,0,0,1,72,25V31.4a1.693,1.693,0,0,1-1.588,1.465l-4.627.695a19.469,19.469,0,0,1-3.372,6.076l2.61,2.937a1.228,1.228,0,0,1-.235,1.879l-6.061,4.537a2.534,2.534,0,0,1-2.536.177l-3.9-1.952a35.3,35.3,0,0,1-8.131,2.529L43.24,53.2A1.97,1.97,0,0,1,41.28,54.4ZM21.7,45.585a1.242,1.242,0,0,1,.529.114,33.091,33.091,0,0,0,8.685,2.7.9.9,0,0,1,.76.584l1.047,3.92h8.55l1.058-3.92a.9.9,0,0,1,.761-.584,32.865,32.865,0,0,0,8.682-2.7,1.337,1.337,0,0,1,1.1.01l4.439,2.223,6.048-4.526-2.916-3.275a.767.767,0,0,1-.1-.109.591.591,0,0,1,.026-.761,18.166,18.166,0,0,0,3.609-6.5.919.919,0,0,1,.78-.569L70,31.4V25l-5.236-.786a.919.919,0,0,1-.78-.569,18.166,18.166,0,0,0-3.609-6.5.591.591,0,0,1-.031-.761.764.764,0,0,1,.125-.133l2.888-3.251L57.312,8.466l-4.436,2.226a1.335,1.335,0,0,1-1.1.01A32.865,32.865,0,0,0,43.094,8a.9.9,0,0,1-.761-.584L41.279,3.5H32.72l-1.049,3.92a.9.9,0,0,1-.76.584,33.091,33.091,0,0,0-8.685,2.7,1.288,1.288,0,0,1-1.09-.01l-4.45-2.223-6.049,4.525,2.975,3.33a.6.6,0,0,1,.013.816,18.049,18.049,0,0,0-3.6,6.5.937.937,0,0,1-.84.579L4,25V31.4l5.219.783a.934.934,0,0,1,.807.574,18.05,18.05,0,0,0,3.6,6.5.6.6,0,0,1-.012.815l-2.96,3.33,6.035,4.53,4.375-2.184a1.244,1.244,0,0,1,.634-.167Z"/><path class="h" d="M45.831,55.052a.983.983,0,0,1-.975-.581.711.711,0,0,1,.539-.841,18.342,18.342,0,0,0,2.461-1.094,1.229,1.229,0,0,1,1.367.185.632.632,0,0,1-.2,1.029,20.7,20.7,0,0,1-2.758,1.226A1.283,1.283,0,0,1,45.831,55.052Z" transform="translate(0 -12.673)"/><path class="h" d="M37,47.441c-11.6,0-21-7.038-21-15.72S25.4,16,37,16s21,7.038,21,15.72c0,.263-.011.517-.032.78a.958.958,0,0,1-1.06.7c-.551-.026-.97-.381-.936-.794.019-.231.028-.456.028-.687C56,23.865,47.493,17.5,37,17.5S18,23.865,18,31.72s8.507,14.223,19,14.223q.45,0,.9-.021a.944.944,0,0,1,1.063.7c.035.413-.385.77-.937.8C37.682,47.433,37.341,47.441,37,47.441Z" transform="translate(0 -3.52)"/><path class="h" d="M53.389,48.286a1.077,1.077,0,0,1-.89-.408.6.6,0,0,1,.079-.779,12.645,12.645,0,0,0,1.466-1.833,1.173,1.173,0,0,1,1.34-.34c.5.183.7.632.454,1A14.11,14.11,0,0,1,54.2,47.975,1.134,1.134,0,0,1,53.389,48.286Z" transform="translate(0 -10.773)"/><path class="h" d="M42.772,39.55a1.031,1.031,0,0,1-.938-.49.635.635,0,0,1,.29-.828l3.958-2.521-3.958-2.521a.628.628,0,0,1-.112-1.057,1.247,1.247,0,0,1,1.411-.083l4.852,3.091a.638.638,0,0,1,0,1.141l-4.852,3.091A1.218,1.218,0,0,1,42.772,39.55Z" transform="translate(0 -7.509)"/><path class="h" d="M31.228,39.55a1.218,1.218,0,0,1-.649-.178l-4.852-3.091a.638.638,0,0,1,0-1.141l4.852-3.091a1.247,1.247,0,0,1,1.411.083.628.628,0,0,1-.111,1.057L27.918,35.71l3.958,2.521a.635.635,0,0,1,.29.828,1.031,1.031,0,0,1-.938.49Z" transform="translate(0 -7.509)"/><path class="h" d="M33.63,42.015a1.319,1.319,0,0,1-.348-.047c-.518-.144-.782-.574-.59-.962l6.741-13.6a1.123,1.123,0,0,1,1.287-.44c.518.145.781.576.587.964l-6.741,13.6A1.031,1.031,0,0,1,33.63,42.015Z" transform="translate(0 -6.264)"/></g><g transform="translate(1556.071 2849.707)"><path class="h" d="M68.834,181.128H64.389V148.106a4.087,4.087,0,0,0-4.3-3.815H46.96a.914.914,0,1,0,0,1.814H60.084a2.144,2.144,0,0,1,2.258,2v33.022h-3.5a6.77,6.77,0,0,0,.081-1.032c0-4.242-3.894-7.693-8.679-7.693a9.611,9.611,0,0,0-1.919.194,6.613,6.613,0,0,0-5.737-3.1,7.039,7.039,0,0,0-2.291.378,5.213,5.213,0,0,0-5.365-4.255,5.213,5.213,0,0,0-5.365,4.255,7.039,7.039,0,0,0-2.291-.378,6.613,6.613,0,0,0-5.737,3.1,9.6,9.6,0,0,0-1.919-.194c-4.786,0-8.679,3.451-8.679,7.693a6.769,6.769,0,0,0,.08,1.032h-3.5V148.106a2.144,2.144,0,0,1,2.258-2H22.9a.914.914,0,1,0,0-1.814H9.773a4.087,4.087,0,0,0-4.3,3.815v33.022H1.023A.97.97,0,0,0,0,182.035v1.939a3.048,3.048,0,0,0,3.211,2.846H66.647a3.048,3.048,0,0,0,3.211-2.846v-1.939A.97.97,0,0,0,68.834,181.128Zm-1.023,2.846a1.105,1.105,0,0,1-1.164,1.032H3.211a1.105,1.105,0,0,1-1.164-1.032v-1.032H15.241a.914.914,0,1,0,0-1.814H13.089a5.18,5.18,0,0,1-.1-1.032c0-3.242,2.975-5.879,6.633-5.879a7.386,7.386,0,0,1,2.168.328,1.144,1.144,0,0,0,.784-.042.953.953,0,0,0,.52-.522,4.425,4.425,0,0,1,4.185-2.673,4.721,4.721,0,0,1,2.841.938,1.129,1.129,0,0,0,1.226.06.857.857,0,0,0,.409-1.025,2.616,2.616,0,0,1-.172-.88,3.182,3.182,0,0,1,3.352-2.971A3.182,3.182,0,0,1,38.28,170.4a2.616,2.616,0,0,1-.172.88.857.857,0,0,0,.409,1.025,1.129,1.129,0,0,0,1.226-.06,4.722,4.722,0,0,1,2.841-.938,4.425,4.425,0,0,1,4.185,2.673.953.953,0,0,0,.52.522,1.143,1.143,0,0,0,.784.042,7.385,7.385,0,0,1,2.168-.328c3.657,0,6.633,2.637,6.633,5.879a5.19,5.19,0,0,1-.1,1.032H19.617a.914.914,0,1,0,0,1.814H67.811Z" transform="translate(0 -112.748)"/><path class="h" d="M153.3,42.693a3.57,3.57,0,0,0-1,2.442V47.96a.893.893,0,0,0,.507.783,1.138,1.138,0,0,0,1.019.007l7.287-3.644q.416.674.883,1.326l-.916,3.248a.828.828,0,0,0,.186.778,1.075,1.075,0,0,0,.807.349h8.75a1.075,1.075,0,0,0,.807-.349.828.828,0,0,0,.186-.778l-.916-3.248q.466-.651.883-1.326l7.287,3.644a1.138,1.138,0,0,0,1.019-.007.893.893,0,0,0,.507-.783V45.135a3.57,3.57,0,0,0-1-2.442l-4.858-5.165a22.074,22.074,0,0,0-1.76-13.611,23.439,23.439,0,0,0-5.814-7.623,1.119,1.119,0,0,0-1.436,0,23.436,23.436,0,0,0-5.814,7.623,22.075,22.075,0,0,0-1.762,13.6Zm1.049,3.714V45.135a1.873,1.873,0,0,1,.523-1.281l3.836-4.079a22.316,22.316,0,0,0,1.492,3.706Zm9.037,2.585.582-2.064h4.964l.582,2.064Zm14.642-5.138a1.873,1.873,0,0,1,.523,1.281v1.271l-5.851-2.926a22.322,22.322,0,0,0,1.492-3.706ZM166.455,18.24a21.709,21.709,0,0,1,4.213,5.547h-8.426A21.708,21.708,0,0,1,166.455,18.24ZM161.389,25.6h10.131a20.407,20.407,0,0,1-2.1,19.513h-5.933a20.407,20.407,0,0,1-2.1-19.513Z" transform="translate(-131.526)"/><path class="h" d="M233.061,124.057a4.336,4.336,0,1,0-4.3,3.815A4.087,4.087,0,0,0,233.061,124.057Zm-6.562,0a2.274,2.274,0,1,1,2.258,2A2.144,2.144,0,0,1,226.5,124.057Z" transform="translate(-193.828 -91.608)"/></g></g></svg>